<svg width="24" height="24" viewBox="0 0 24 24" fill="none" xmlns="http://www.w3.org/2000/svg">
<rect width="24" height="24" rx="5" fill="white"/>
<path fill-rule="evenodd" clip-rule="evenodd" d="M10.543 5.18615C10.2948 4.93795 9.89389 4.93795 9.6457 5.18615L5.19092 9.64093C5.07 9.76184 5 9.92094 5 10.0928V14.5475C5 14.8976 5.28638 15.1839 5.6364 15.1839H14.546C14.896 15.1839 15.1824 14.8976 15.1824 14.5475V10.0928C15.1824 9.92094 15.1123 9.76184 14.9978 9.64093L10.543 5.18615ZM6.27279 13.9111V10.3537L10.0912 6.53531L13.9096 10.3537V13.9111H6.27279ZM18.3631 13.9116V6.27487C18.7131 6.27487 18.9995 5.98849 18.9995 5.63847C18.9995 5.28845 18.7131 5.00207 18.3631 5.00207H17.0903C16.7403 5.00207 16.4539 5.28845 16.4539 5.63847C16.4539 5.98849 16.7403 6.27487 17.0903 6.27487V13.9116C16.7403 13.9116 16.4539 14.198 16.4539 14.548C16.4539 14.898 16.7403 15.1844 17.0903 15.1844H18.3631C18.7131 15.1844 18.9995 14.898 18.9995 14.548C18.9995 14.198 18.7131 13.9116 18.3631 13.9116ZM13.9096 17.0924C13.9096 16.7424 14.196 16.456 14.546 16.456C14.896 16.456 15.1824 16.7424 15.1824 17.0924V18.3652C15.1824 18.7152 14.896 19.0016 14.546 19.0016C14.196 19.0016 13.9096 18.7152 13.9096 18.3652H6.27283C6.27283 18.7152 5.98645 19.0016 5.63643 19.0016C5.28641 19.0016 5.00004 18.7152 5.00004 18.3652V17.0924C5.00004 16.7424 5.28641 16.456 5.63643 16.456C5.98645 16.456 6.27283 16.7424 6.27283 17.0924H13.9096Z" fill="#0512F5"/>
</svg>
