<svg width="14" height="14" viewBox="0 0 14 14" fill="none" xmlns="http://www.w3.org/2000/svg">
<path d="M2.31685 13.1367C2.1482 12.9601 1.97956 12.7837 1.80617 12.6019C1.96633 12.4486 2.12649 12.295 2.29886 12.1298C2.23643 12.0868 2.20385 12.0634 2.1706 12.0413C1.36777 11.5102 0.947353 10.7641 0.921904 9.80196C0.912064 9.43399 0.918171 9.06602 0.921904 8.69771C0.922583 8.62073 0.903241 8.58139 0.827234 8.54645C0.381029 8.34229 0.13638 7.99026 0.136719 7.49986C0.137058 7.0098 0.381708 6.65675 0.828591 6.45496C0.915118 6.41596 0.920547 6.36509 0.920547 6.2898C0.919529 4.881 0.918511 3.47221 0.920207 2.06341C0.921225 1.13179 1.5432 0.358883 2.45427 0.180155C2.69213 0.133692 2.94255 0.144545 3.1872 0.140475C3.51668 0.135049 3.84718 0.120466 4.16715 0.231365C4.8295 0.461303 5.24958 0.916093 5.43349 1.58895C5.45385 1.6639 5.47998 1.69951 5.55938 1.71884C6.4148 1.9264 7.00929 2.6837 7.0154 3.56649C7.01608 3.68824 7.0154 3.81033 7.0154 3.93921C5.74601 3.93921 4.48611 3.93921 3.22588 3.93921C3.10203 3.19242 3.40674 2.0668 4.66629 1.7046C4.57977 1.31459 4.21093 0.965608 3.75556 0.922198C3.37518 0.88591 2.98395 0.886927 2.60459 0.932033C2.09561 0.992739 1.69012 1.46686 1.68673 1.981C1.67689 3.42337 1.68266 4.86608 1.68266 6.30879C1.68266 6.32066 1.68741 6.33253 1.69284 6.35831C1.73695 6.35831 1.78208 6.35831 1.82721 6.35831C3.53297 6.35831 5.23872 6.35763 6.94448 6.36034C7.03949 6.36034 7.08768 6.33796 7.13382 6.24537C7.33979 5.83094 7.68318 5.60847 8.14635 5.59931C8.66246 5.58913 9.17924 5.5888 9.69534 5.59931C10.1585 5.6088 10.5019 5.83094 10.7072 6.24605C10.7537 6.33966 10.8032 6.36136 10.8972 6.36C11.2399 6.35526 11.583 6.35763 11.9257 6.35831C12.5511 6.35899 12.9708 6.69169 13.1174 7.3018C13.1211 7.31774 13.1303 7.33266 13.1367 7.34826C13.1367 7.45815 13.1367 7.56837 13.1367 7.67825C13.1296 7.68842 13.1187 7.69758 13.1164 7.70843C13.0319 8.11574 12.794 8.3952 12.4167 8.56545C12.3824 8.58105 12.3529 8.64718 12.3522 8.69025C12.3468 9.07891 12.3546 9.46791 12.3464 9.85656C12.3366 10.3398 12.1985 10.7872 11.9416 11.1975C11.7038 11.5774 11.3865 11.8755 10.9817 12.1146C11.1544 12.2723 11.319 12.4222 11.488 12.5761C11.2946 12.7783 11.1235 12.9573 10.9525 13.1361C10.944 13.1361 10.9356 13.1361 10.9271 13.1361C10.7167 12.9224 10.5046 12.7108 10.2976 12.4941C10.2345 12.4279 10.1775 12.4005 10.0791 12.4174C9.92608 12.4439 9.76762 12.4493 9.61153 12.4493C7.62685 12.4513 5.64251 12.4513 3.65784 12.449C3.48512 12.4486 3.31275 12.4229 3.13969 12.4137C3.10271 12.4117 3.05249 12.4195 3.02874 12.4432C2.79732 12.6718 2.57032 12.9044 2.34195 13.1361C2.33381 13.1367 2.32533 13.1367 2.31685 13.1367ZM1.68232 8.64921C1.68232 9.04635 1.67825 9.43467 1.683 9.82265C1.69521 10.836 2.53503 11.6835 3.54959 11.6869C5.60621 11.6937 7.66282 11.6927 9.71943 11.6873C10.585 11.6849 11.3821 11.0615 11.525 10.2096C11.6094 9.70666 11.5684 9.18268 11.583 8.66821C11.5833 8.6621 11.5731 8.65532 11.5691 8.64989C11.3244 8.64989 11.0804 8.64989 10.8229 8.64989C10.8229 8.90289 10.8229 9.15013 10.8229 9.39567C9.54638 9.39567 8.28378 9.39567 7.01201 9.39567C7.01201 9.14267 7.01201 8.89882 7.01201 8.64955C5.23533 8.64921 3.46816 8.64921 1.68232 8.64921ZM10.0635 8.63802C10.0635 8.01129 10.0642 7.3988 10.0632 6.78597C10.0628 6.50923 9.90911 6.35865 9.6285 6.35831C9.15481 6.35763 8.68112 6.35763 8.20743 6.35831C7.92885 6.35865 7.77785 6.51024 7.77751 6.79038C7.77683 7.36929 7.77717 7.94855 7.77751 8.52746C7.77751 8.56375 7.78226 8.60004 7.78464 8.63768C8.54641 8.63802 9.29766 8.63802 10.0635 8.63802ZM7.01065 7.12002C6.96484 7.12002 6.93159 7.12002 6.89833 7.12002C5.04124 7.12002 3.18415 7.12002 1.32671 7.12002C1.30126 7.12002 1.27581 7.11833 1.2507 7.12104C1.09496 7.13901 0.980945 7.21702 0.922583 7.36387C0.817054 7.6284 1.01352 7.88106 1.32468 7.88106C3.18177 7.8814 5.03887 7.8814 6.8963 7.88106C6.93295 7.88106 6.96959 7.87733 7.01099 7.87495C7.01065 7.62365 7.01065 7.3798 7.01065 7.12002ZM4.04907 3.17783C4.76164 3.17783 5.46607 3.17783 6.17219 3.17783C6.05547 2.74882 5.58856 2.42188 5.10435 2.42392C4.62761 2.42562 4.16342 2.75492 4.04907 3.17783ZM10.83 7.88174C11.2185 7.88174 11.5942 7.88309 11.9695 7.88106C12.2043 7.8797 12.3739 7.71793 12.3743 7.50088C12.3743 7.28383 12.2046 7.12206 11.9701 7.12036C11.6702 7.11833 11.3702 7.12002 11.0703 7.12002C10.9915 7.12002 10.9128 7.12002 10.83 7.12002C10.83 7.37913 10.83 7.62229 10.83 7.88174Z" fill="#6666FF"/>
</svg>
