<svg width="15" height="11" viewBox="0 0 15 11" fill="none" xmlns="http://www.w3.org/2000/svg">
<path d="M1.95662 8.84588H13.0681V10.1716C13.0681 10.3305 13.1199 10.463 13.2236 10.5692C13.3273 10.6746 13.4574 10.7273 13.6137 10.7273C13.7701 10.7273 13.9006 10.6746 14.0051 10.5692C14.1096 10.4639 14.1615 10.3313 14.1607 10.1716V6.24579C14.1607 5.68304 13.9866 5.20809 13.6384 4.82094C13.2903 4.43379 12.8471 4.21388 12.3088 4.1612V2.52564C12.3088 1.94868 12.1182 1.46662 11.7372 1.07947C11.3561 0.692323 10.8816 0.499167 10.3137 0.500003H4.71102C4.14311 0.500003 3.66861 0.693159 3.28753 1.07947C2.90645 1.46579 2.71632 1.94784 2.71714 2.52564V4.1612C2.17721 4.21471 1.73357 4.43463 1.38624 4.82094C1.0389 5.20726 0.865234 5.68221 0.865234 6.24579V10.1716C0.865234 10.3305 0.916676 10.463 1.01956 10.5692C1.12327 10.6746 1.25372 10.7273 1.41093 10.7273C1.56731 10.7273 1.69736 10.6746 1.80106 10.5692C1.90477 10.4639 1.95662 10.3313 1.95662 10.1716V8.84588ZM1.95662 7.73585V6.24579C1.95662 5.95313 2.05128 5.71022 2.24058 5.51706C2.42989 5.3239 2.66981 5.22732 2.96036 5.22732H12.068C12.3561 5.22732 12.5948 5.32348 12.7841 5.5158C12.9734 5.70813 13.0685 5.95145 13.0693 6.24579V7.73585H1.95662ZM3.80853 4.11856V2.38014C3.80853 2.15438 3.87972 1.96958 4.02212 1.82576C4.16451 1.6811 4.34682 1.60877 4.56904 1.60877H10.4569C10.6783 1.60877 10.8602 1.6811 11.0026 1.82576C11.145 1.97042 11.2161 2.15521 11.2161 2.38014V4.1173L3.80853 4.11856Z" fill="#6666FF"/>
</svg>
