<svg width="24" height="24" viewBox="0 0 24 24" fill="none" xmlns="http://www.w3.org/2000/svg">
<path fill-rule="evenodd" clip-rule="evenodd" d="M12 4C13.9493 4 15.8187 4.77434 17.197 6.15266C18.5753 7.53099 19.3497 9.4004 19.3497 11.3496C19.3497 13.86 17.981 15.9146 16.5388 17.3886C15.8183 18.1171 15.0321 18.7775 14.1902 19.3616L13.8423 19.5984L13.679 19.707L13.3711 19.903L13.0968 20.0704L12.757 20.268C12.5265 20.3996 12.2655 20.4689 12 20.4689C11.7345 20.4689 11.4736 20.3996 11.243 20.268L10.9033 20.0704L10.4787 19.8091L10.3219 19.707L9.98705 19.4841C9.07882 18.8696 8.23285 18.1677 7.46122 17.3886C6.01906 15.9138 4.65039 13.86 4.65039 11.3496C4.65039 9.4004 5.42473 7.53099 6.80305 6.15266C8.18138 4.77434 10.0508 4 12 4ZM12 5.63325C10.484 5.63325 9.02997 6.23551 7.95794 7.30755C6.88591 8.37958 6.28364 9.83356 6.28364 11.3496C6.28364 13.2459 7.32239 14.9101 8.62818 16.2461C9.18964 16.8145 9.79649 17.3362 10.4427 17.8059L10.8167 18.0721C10.9376 18.1565 11.0538 18.2349 11.1654 18.3073L11.4839 18.5115L11.764 18.6821L12 18.8201L12.3716 18.6005L12.6713 18.4127C12.8308 18.3114 13.0015 18.1979 13.1833 18.0721L13.5573 17.8059C14.2036 17.3362 14.8104 16.8145 15.3719 16.2461C16.6777 14.911 17.7164 13.2459 17.7164 11.3496C17.7164 9.83356 17.1142 8.37958 16.0421 7.30755C14.9701 6.23551 13.5161 5.63325 12 5.63325ZM12 8.08314C12.8664 8.08314 13.6972 8.42728 14.3098 9.03987C14.9224 9.65246 15.2665 10.4833 15.2665 11.3496C15.2665 12.216 14.9224 13.0468 14.3098 13.6594C13.6972 14.272 12.8664 14.6162 12 14.6162C11.1337 14.6162 10.3029 14.272 9.69026 13.6594C9.07767 13.0468 8.73353 12.216 8.73353 11.3496C8.73353 10.4833 9.07767 9.65246 9.69026 9.03987C10.3029 8.42728 11.1337 8.08314 12 8.08314ZM12 9.71639C11.5669 9.71639 11.1514 9.88846 10.8451 10.1948C10.5389 10.5011 10.3668 10.9165 10.3668 11.3496C10.3668 11.7828 10.5389 12.1982 10.8451 12.5045C11.1514 12.8108 11.5669 12.9829 12 12.9829C12.4332 12.9829 12.8486 12.8108 13.1549 12.5045C13.4612 12.1982 13.6333 11.7828 13.6333 11.3496C13.6333 10.9165 13.4612 10.5011 13.1549 10.1948C12.8486 9.88846 12.4332 9.71639 12 9.71639Z" fill="#0512F5"/>
</svg>
