<svg width="24" height="24" viewBox="0 0 24 24" fill="none" xmlns="http://www.w3.org/2000/svg">
<rect x="0.5" y="0.5" width="23" height="23" rx="4.5" fill="white"/>
<rect x="0.5" y="0.5" width="23" height="23" rx="4.5" stroke="#6666FF"/>
<path d="M14.0792 12.4572C14.8794 12.835 15.5617 13.4234 16.053 14.1594C16.5442 14.8954 16.8259 15.7512 16.8677 16.6351C16.8733 16.7161 16.8626 16.7973 16.8364 16.8741C16.8101 16.9509 16.7688 17.0217 16.7148 17.0823C16.6608 17.1429 16.5953 17.1921 16.522 17.227C16.4488 17.262 16.3693 17.2819 16.2882 17.2857C16.2072 17.2895 16.1262 17.277 16.05 17.2491C15.9738 17.2211 15.9039 17.1783 15.8445 17.123C15.7851 17.0676 15.7374 17.001 15.7041 16.927C15.6708 16.853 15.6526 16.7731 15.6506 16.692C15.6063 15.7532 15.2022 14.8674 14.5221 14.2187C13.842 13.57 12.9383 13.208 11.9984 13.208C11.0585 13.208 10.1548 13.57 9.4747 14.2187C8.79463 14.8674 8.39051 15.7532 8.34622 16.692C8.33527 16.8509 8.26254 16.9992 8.14359 17.1051C8.02465 17.2111 7.86895 17.2662 7.70984 17.2588C7.55072 17.2514 7.40085 17.1819 7.2923 17.0654C7.18375 16.9488 7.12517 16.7943 7.12909 16.6351C7.17088 15.7513 7.45241 14.8955 7.9435 14.1595C8.43459 13.4235 9.11673 12.8351 9.91678 12.4572C9.4041 12.0296 9.03559 11.4544 8.86138 10.8099C8.68717 10.1655 8.71572 9.48296 8.94313 8.85528C9.17055 8.22759 9.58579 7.6852 10.1324 7.30187C10.679 6.91854 11.3304 6.71289 11.998 6.71289C12.6656 6.71289 13.317 6.91854 13.8636 7.30187C14.4102 7.6852 14.8254 8.22759 15.0529 8.85528C15.2803 9.48296 15.3088 10.1655 15.1346 10.8099C14.9604 11.4544 14.5919 12.0296 14.0792 12.4572ZM14.0297 9.96041C14.0297 9.42169 13.8156 8.90503 13.4347 8.5241C13.0538 8.14317 12.5371 7.92916 11.9984 7.92916C11.4597 7.92916 10.943 8.14317 10.5621 8.5241C10.1812 8.90503 9.96715 9.42169 9.96715 9.96041C9.96715 10.4991 10.1812 11.0158 10.5621 11.3967C10.943 11.7777 11.4597 11.9917 11.9984 11.9917C12.5371 11.9917 13.0538 11.7777 13.4347 11.3967C13.8156 11.0158 14.0297 10.4991 14.0297 9.96041Z" fill="#6666FF"/>
</svg>
