<svg width="254" height="256" viewBox="0 0 254 256" fill="none" xmlns="http://www.w3.org/2000/svg">
<path d="M254 126.634C252.094 175.929 232.004 213.263 191.15 238.16C166.196 253.349 138.305 259.169 109.917 254.365C26.025 240.173 -3.53392 171.504 0.33712 120.615C6.94767 33.3278 80.4578 -2.39219 127.168 0.11937C127.168 8.90984 127.168 17.7601 127.168 27.3678C107.952 30.1784 89.0336 34.165 72.676 45.8458C48.5763 63.028 34.3229 85.9112 30.3724 115.492C22.6899 173.019 66.3434 220.1 116.091 226.08C164.509 231.901 211.061 198.194 221.92 150.395C222.416 148.182 223.329 146.049 223.746 143.837C226.863 126.575 226.823 126.575 244.153 126.614C247.389 126.634 250.645 126.634 254 126.634Z" fill="#0512F5"/>
</svg>
