<svg width="24" height="24" viewBox="0 0 24 24" fill="none" xmlns="http://www.w3.org/2000/svg">
<rect width="24" height="24" rx="2" fill="#6666FF"/>
<path d="M13.5547 5V8.11111C13.5547 8.31739 13.6366 8.51522 13.7825 8.66108C13.9284 8.80694 14.1262 8.88889 14.3325 8.88889H17.4436" stroke="#F2DB00" stroke-width="1.5" stroke-linecap="round" stroke-linejoin="round"/>
<path d="M15.888 19H8.11024C7.69768 19 7.30202 18.8361 7.0103 18.5444C6.71858 18.2527 6.55469 17.857 6.55469 17.4444V6.55556C6.55469 6.143 6.71858 5.74733 7.0103 5.45561C7.30202 5.16389 7.69768 5 8.11024 5H13.5547L17.4436 8.88889V17.4444C17.4436 17.857 17.2797 18.2527 16.988 18.5444C16.6962 18.8361 16.3006 19 15.888 19Z" stroke="#F2DB00" stroke-width="1.5" stroke-linecap="round" stroke-linejoin="round"/>
</svg>
