<svg width="28" height="29" viewBox="0 0 28 29" fill="none" xmlns="http://www.w3.org/2000/svg">
<path d="M22.8309 6.84658C23.9002 7.92026 24.5006 9.37387 24.5006 10.8892C24.5006 12.4046 23.9002 13.8582 22.8309 14.9319L13.9997 23.8336L5.1685 14.9313C4.37417 14.1318 3.83334 13.1157 3.61372 12.0103C3.3941 10.9048 3.50545 9.75918 3.93384 8.71673C4.36222 7.67429 5.0886 6.78138 6.02203 6.14978C6.95546 5.51819 8.05447 5.17599 9.18146 5.16602C10.6884 5.17475 12.1307 5.7786 13.1944 6.84602C13.5049 7.15342 13.7754 7.49866 13.9997 7.87362C14.224 7.49886 14.4946 7.1538 14.805 6.84658C15.3292 6.3145 15.9539 5.89196 16.6429 5.60356C17.3319 5.31515 18.0713 5.16663 18.8182 5.16663C19.5651 5.16663 20.3046 5.31515 20.9936 5.60356C21.6825 5.89196 22.3067 6.3145 22.8309 6.84658Z" fill="#0512F5" stroke="#0512F5" stroke-width="1.5" stroke-linecap="round" stroke-linejoin="round"/>
</svg>
