<svg width="11" height="16" viewBox="0 0 11 16" fill="none" xmlns="http://www.w3.org/2000/svg">
<path d="M9.95122 8.46303C9.88379 8.37914 9.80366 8.31258 9.71544 8.26716C9.62721 8.22175 9.53262 8.19837 9.43709 8.19837C9.34156 8.19837 9.24697 8.22175 9.15874 8.26716C9.07052 8.31258 8.99039 8.37914 8.92296 8.46303L5.80853 12.324L5.80853 1.30119C5.80853 1.06254 5.73206 0.833671 5.59594 0.664921C5.45982 0.496172 5.2752 0.401368 5.0827 0.401368C4.89019 0.401368 4.70557 0.496172 4.56945 0.664921C4.43333 0.833671 4.35686 1.06254 4.35686 1.30119L4.35686 12.324L1.24122 8.46303C1.10487 8.29398 0.919929 8.19902 0.727092 8.19902C0.534255 8.19902 0.349317 8.29398 0.21296 8.46303C0.0766042 8.63207 2.03187e-09 8.86134 0 9.1004C-2.03187e-09 9.33946 0.0766042 9.56873 0.21296 9.73778L4.56796 15.1367C4.63539 15.2206 4.71552 15.2872 4.80374 15.3326C4.89197 15.378 4.98656 15.4014 5.08209 15.4014C5.17762 15.4014 5.27221 15.378 5.36044 15.3326C5.44866 15.2872 5.52879 15.2206 5.59622 15.1367L9.95122 9.73778C10.0189 9.65418 10.0726 9.55484 10.1092 9.44547C10.1458 9.33609 10.1647 9.21883 10.1647 9.1004C10.1647 8.98197 10.1458 8.86471 10.1092 8.75533C10.0726 8.64596 10.0189 8.54662 9.95122 8.46303Z" fill="#A2A7AF"/>
</svg>
