<svg width="22" height="25" viewBox="0 0 22 25" fill="none" xmlns="http://www.w3.org/2000/svg">
<path fill-rule="evenodd" clip-rule="evenodd" d="M7.5 12.1667C8.11884 12.1667 8.71233 12.4125 9.14991 12.8501C9.5875 13.2877 9.83333 13.8812 9.83333 14.5V19.1667C9.83333 19.7855 9.5875 20.379 9.14991 20.8166C8.71233 21.2542 8.11884 21.5 7.5 21.5H2.83333C2.21449 21.5 1.621 21.2542 1.18342 20.8166C0.745833 20.379 0.5 19.7855 0.5 19.1667V14.5C0.5 13.8812 0.745833 13.2877 1.18342 12.8501C1.621 12.4125 2.21449 12.1667 2.83333 12.1667H7.5ZM19.1667 12.1667C19.7553 12.1665 20.3223 12.3888 20.754 12.7891C21.1856 13.1894 21.45 13.738 21.4942 14.325L21.5 14.5V19.1667C21.5002 19.7553 21.2779 20.3223 20.8776 20.754C20.4773 21.1856 19.9287 21.45 19.3417 21.4942L19.1667 21.5H14.5C13.9113 21.5002 13.3443 21.2779 12.9127 20.8776C12.481 20.4773 12.2167 19.9287 12.1725 19.3417L12.1667 19.1667V14.5C12.1665 13.9113 12.3888 13.3443 12.7891 12.9127C13.1894 12.481 13.738 12.2167 14.325 12.1725L14.5 12.1667H19.1667ZM7.5 14.5H2.83333V19.1667H7.5V14.5ZM19.1667 14.5H14.5V19.1667H19.1667V14.5ZM19.1667 0.5C19.7553 0.499814 20.3223 0.722141 20.754 1.12241C21.1856 1.52269 21.45 2.07132 21.4942 2.65833L21.5 2.83333V7.5C21.5002 8.08867 21.2779 8.65566 20.8776 9.08731C20.4773 9.51895 19.9287 9.78335 19.3417 9.8275L19.1667 9.83333H14.5C13.9113 9.83352 13.3443 9.61119 12.9127 9.21092C12.481 8.81065 12.2167 8.26201 12.1725 7.675L12.1667 7.5V2.83333C12.1665 2.24466 12.3888 1.67767 12.7891 1.24603C13.1894 0.814382 13.738 0.549984 14.325 0.505834L14.5 0.5H19.1667ZM7.5 0.5C8.08867 0.499814 8.65566 0.722141 9.08731 1.12241C9.51895 1.52269 9.78335 2.07132 9.8275 2.65833L9.83333 2.83333V7.5C9.83352 8.08867 9.61119 8.65566 9.21092 9.08731C8.81065 9.51895 8.26201 9.78335 7.675 9.8275L7.5 9.83333H2.83333C2.24466 9.83352 1.67767 9.61119 1.24603 9.21092C0.814382 8.81065 0.549984 8.26201 0.505834 7.675L0.5 7.5V2.83333C0.499814 2.24466 0.722141 1.67767 1.12241 1.24603C1.52269 0.814382 2.07132 0.549984 2.65833 0.505834L2.83333 0.5H7.5ZM19.1667 2.83333H14.5V7.5H19.1667V2.83333ZM7.5 2.83333H2.83333V7.5H7.5V2.83333Z" fill="#0512F5"/>
</svg>
