<svg width="23" height="22" viewBox="0 0 23 22" fill="none" xmlns="http://www.w3.org/2000/svg">
<path d="M18.3645 17.5731C15.9887 17.5731 13.6138 17.5771 11.238 17.5675C10.9989 17.5667 10.9041 17.6415 10.834 17.8577C10.1275 20.056 7.87127 21.5812 5.58615 21.4172C3.02075 21.2331 1.02415 19.494 0.636706 17.1052C0.203094 14.4342 1.93507 11.8982 4.61423 11.2824C7.30247 10.6641 10.013 12.1636 10.8423 14.7421C10.9148 14.9681 11.0269 15.0026 11.2347 15.0026C15.9854 14.9986 16.0327 14.9986 20.7834 15.0002C21.6325 15.0002 22.2129 15.5598 22.1857 16.3421C22.1609 17.0545 21.5864 17.5667 20.7867 17.5715C19.6969 17.5779 23.3099 17.5731 22.2201 17.5731C20.9349 17.5731 19.6497 17.5731 18.3645 17.5731ZM5.81945 13.7218C4.36858 13.7274 3.19139 14.8796 3.19551 16.2883C3.19964 17.7082 4.40073 18.8636 5.85902 18.8515C7.29999 18.8395 8.48542 17.664 8.46646 16.2642C8.44832 14.8434 7.27361 13.7162 5.81945 13.7218Z" fill="white"/>
<path d="M22.4275 5.99566C22.4141 8.52201 20.4902 10.7185 17.9534 11.0829C15.2932 11.4651 12.8246 9.99678 12.0309 7.54526C11.956 7.31435 11.836 7.28941 11.6312 7.28941C6.83141 7.29262 6.78369 7.29262 1.98312 7.29101C1.14193 7.29101 0.555602 6.73908 0.570593 5.97313C0.582253 5.37453 1.01201 4.86926 1.61916 4.75662C1.79073 4.72444 1.96979 4.718 2.14552 4.718C6.87281 4.71639 6.84806 4.71398 11.5754 4.72202C11.8427 4.72283 11.966 4.6657 12.0517 4.39859C12.7513 2.22384 15.0833 0.689522 17.3779 0.872159C19.953 1.07652 21.9661 2.81439 22.3375 5.1581C22.38 5.43568 22.3975 5.71647 22.4275 5.99566ZM17.088 8.57028C18.5555 8.5735 19.7448 7.43664 19.7573 6.01979C19.7698 4.61582 18.5738 3.44678 17.1163 3.43793C15.6422 3.42908 14.4304 4.58847 14.4312 6.00853C14.432 7.41894 15.6222 8.56706 17.088 8.57028Z" fill="white"/>
</svg>
