<svg width="32" height="32" viewBox="0 0 32 32" fill="none" xmlns="http://www.w3.org/2000/svg">
<rect width="32" height="32" rx="4" fill="white" fill-opacity="0.3"/>
<path d="M11.648 10.5562C11.6477 10.9688 11.4817 11.3643 11.1864 11.6559C10.8911 11.9475 10.4906 12.1111 10.0732 12.1109C9.65575 12.1107 9.25548 11.9467 8.96045 11.6548C8.66542 11.3629 8.49979 10.9672 8.5 10.5547C8.50021 10.1422 8.66624 9.7466 8.96156 9.45504C9.25689 9.16348 9.65732 8.99979 10.0748 9C10.4922 9.00021 10.8925 9.16428 11.1875 9.45614C11.4825 9.74799 11.6482 10.1437 11.648 10.5562ZM11.6952 13.2628H8.54722V23H11.6952V13.2628ZM16.6689 13.2628H13.5367V23H16.6375V17.8903C16.6375 15.0438 20.3914 14.7793 20.3914 17.8903V23H23.5V16.8326C23.5 12.0339 17.9439 12.2128 16.6375 14.5694L16.6689 13.2628Z" fill="white"/>
</svg>
