<svg width="20" height="16" viewBox="0 0 20 16" fill="none" xmlns="http://www.w3.org/2000/svg">
<path d="M5.09844 2.40078C5.09844 2.95774 4.87719 3.49188 4.48336 3.88571C4.08954 4.27953 3.55539 4.50078 2.99844 4.50078C2.44148 4.50078 1.90734 4.27953 1.51351 3.88571C1.11969 3.49188 0.898438 2.95774 0.898438 2.40078C0.898438 1.84383 1.11969 1.30968 1.51351 0.915857C1.90734 0.52203 2.44148 0.300781 2.99844 0.300781C3.55539 0.300781 4.08954 0.52203 4.48336 0.915857C4.87719 1.30968 5.09844 1.84383 5.09844 2.40078ZM5.09844 8.00078C5.09844 8.55774 4.87719 9.09188 4.48336 9.48571C4.08954 9.87953 3.55539 10.1008 2.99844 10.1008C2.44148 10.1008 1.90734 9.87953 1.51351 9.48571C1.11969 9.09188 0.898438 8.55774 0.898438 8.00078C0.898438 7.44383 1.11969 6.90968 1.51351 6.51586C1.90734 6.12203 2.44148 5.90078 2.99844 5.90078C3.55539 5.90078 4.08954 6.12203 4.48336 6.51586C4.87719 6.90968 5.09844 7.44383 5.09844 8.00078ZM5.09844 13.6008C5.09844 14.1577 4.87719 14.6919 4.48336 15.0857C4.08954 15.4795 3.55539 15.7008 2.99844 15.7008C2.44148 15.7008 1.90734 15.4795 1.51351 15.0857C1.11969 14.6919 0.898438 14.1577 0.898438 13.6008C0.898438 13.0438 1.11969 12.5097 1.51351 12.1159C1.90734 11.722 2.44148 11.5008 2.99844 11.5008C3.55539 11.5008 4.08954 11.722 4.48336 12.1159C4.87719 12.5097 5.09844 13.0438 5.09844 13.6008Z" fill="white"/>
<path fill-rule="evenodd" clip-rule="evenodd" d="M6.5 2.4C6.5 2.0287 6.6475 1.6726 6.91005 1.41005C7.1726 1.1475 7.5287 1 7.9 1H17.7C18.0713 1 18.4274 1.1475 18.69 1.41005C18.9525 1.6726 19.1 2.0287 19.1 2.4C19.1 2.7713 18.9525 3.1274 18.69 3.38995C18.4274 3.6525 18.0713 3.8 17.7 3.8H7.9C7.5287 3.8 7.1726 3.6525 6.91005 3.38995C6.6475 3.1274 6.5 2.7713 6.5 2.4ZM6.5 8C6.5 7.6287 6.6475 7.2726 6.91005 7.01005C7.1726 6.7475 7.5287 6.6 7.9 6.6H17.7C18.0713 6.6 18.4274 6.7475 18.69 7.01005C18.9525 7.2726 19.1 7.6287 19.1 8C19.1 8.3713 18.9525 8.7274 18.69 8.98995C18.4274 9.2525 18.0713 9.4 17.7 9.4H7.9C7.5287 9.4 7.1726 9.2525 6.91005 8.98995C6.6475 8.7274 6.5 8.3713 6.5 8ZM6.5 13.6C6.5 13.2287 6.6475 12.8726 6.91005 12.6101C7.1726 12.3475 7.5287 12.2 7.9 12.2H17.7C18.0713 12.2 18.4274 12.3475 18.69 12.6101C18.9525 12.8726 19.1 13.2287 19.1 13.6C19.1 13.9713 18.9525 14.3274 18.69 14.5899C18.4274 14.8525 18.0713 15 17.7 15H7.9C7.5287 15 7.1726 14.8525 6.91005 14.5899C6.6475 14.3274 6.5 13.9713 6.5 13.6Z" fill="white"/>
</svg>
