<svg width="100" height="100" viewBox="0 0 100 100" fill="none" xmlns="http://www.w3.org/2000/svg">
<path fill-rule="evenodd" clip-rule="evenodd" d="M52.1351 26.9819C52.337 26.7515 52.3853 26.4242 52.2587 26.1456C52.1325 25.8665 51.8546 25.6875 51.5482 25.6875H20.089C12.0156 25.6875 5.46094 32.2418 5.46094 40.3152V64.9403C5.46094 73.0137 12.0156 79.568 20.089 79.568C20.089 79.568 20.5366 79.5684 21.1201 79.6044C21.1358 79.6055 21.1519 79.6059 21.1681 79.6059C22.4336 79.6059 23.5126 80.522 23.719 81.7695C24.0366 84.2381 23.9883 86.6905 23.7587 88.8351C23.7579 88.8437 23.7572 88.8523 23.7564 88.8605C23.6531 90.2639 24.431 91.5838 25.7089 92.1729C26.9864 92.7617 28.4954 92.4958 29.495 91.5055C29.4969 91.504 29.4984 91.5021 29.5003 91.5006C33.2175 87.7489 36.1969 83.8886 38.3759 80.7253C38.377 80.7238 38.3782 80.722 38.3793 80.7205C38.8669 80.0002 39.6797 79.5688 40.549 79.568C40.5493 79.568 61.6314 79.568 61.6314 79.568C69.7048 79.568 76.2594 73.0137 76.2594 64.9403V40.3152C76.2594 34.7167 73.1077 29.8482 68.4819 27.3897C68.3336 27.3111 68.1636 27.2823 67.9973 27.3077C64.7186 27.8126 62.0119 28.9437 59.7969 30.528C55.1242 33.8703 52.4501 38.7122 50.9778 42.6609C50.9733 42.6725 50.9692 42.6845 50.9654 42.6965C50.437 44.3538 48.6621 45.2703 47.0048 44.7414C45.3475 44.213 44.4313 42.4384 44.9598 40.7811C44.9636 40.7692 44.9669 40.7572 44.9703 40.7448C46.1137 36.4557 48.3085 31.3508 52.1351 26.9819Z" fill="#6666FF"/>
<path fill-rule="evenodd" clip-rule="evenodd" d="M20.7411 68.0051H53.8782C55.7489 68.0051 57.2677 66.486 57.2677 64.6156C57.2677 62.7448 55.7489 61.2261 53.8782 61.2261H20.7411C18.8703 61.2261 17.3516 62.7448 17.3516 64.6156C17.3516 66.486 18.8703 68.0051 20.7411 68.0051Z" fill="#E9F6FD"/>
<path fill-rule="evenodd" clip-rule="evenodd" d="M20.7411 56.0177H60.9815C62.8523 56.0177 64.371 54.4986 64.371 52.6282C64.371 50.7574 62.8523 49.2383 60.9815 49.2383H20.7411C18.8703 49.2383 17.3516 50.7574 17.3516 52.6282C17.3516 54.4986 18.8703 56.0177 20.7411 56.0177Z" fill="#E9F6FD"/>
<path fill-rule="evenodd" clip-rule="evenodd" d="M45.7197 38.2838C45.8013 38.0452 45.7628 37.7823 45.6163 37.5771C45.4699 37.3722 45.2335 37.2505 44.9815 37.2505H28.1219C26.2511 37.2505 24.7324 38.7696 24.7324 40.64C24.7324 42.5108 26.2511 44.0299 28.1219 44.0299H44.3335C44.5946 44.0299 44.8384 43.8992 44.983 43.6823C45.1276 43.4651 45.1541 43.1898 45.0538 42.949C44.7766 42.2842 44.7246 41.5209 44.9605 40.7812C44.9643 40.7692 44.9676 40.7572 44.971 40.7449C45.1834 39.9494 45.4317 39.1254 45.7197 38.2838Z" fill="#E9F6FD"/>
<path fill-rule="evenodd" clip-rule="evenodd" d="M50.4043 43.7341C50.9702 44.4771 51.762 45.0603 52.7193 45.3655C55.1949 46.1554 57.8462 44.788 58.6388 42.3138C60.0178 38.6228 62.5103 34.0696 66.8934 30.9348C68.041 30.1138 69.3328 29.4284 70.7811 28.9045C70.0665 28.3307 69.2976 27.8228 68.483 27.3899C68.3346 27.3112 68.1646 27.2824 67.9983 27.3078C64.7197 27.8127 62.0129 28.9438 59.7979 30.5281C55.1253 33.8704 52.4511 38.7123 50.9788 42.661C50.9743 42.6726 50.9702 42.6846 50.9665 42.6966C50.8421 43.0865 50.6489 43.4356 50.4043 43.7341Z" fill="#4343A7"/>
<path fill-rule="evenodd" clip-rule="evenodd" d="M72.2896 15.9128C64.1784 16.5188 58.2057 19.2716 53.823 23.0948C48.0173 28.1589 44.9211 34.8761 43.4642 40.3379C42.6904 42.7993 44.0597 45.4405 46.5308 46.2285C49.0068 47.018 51.6578 45.651 52.4507 43.1768C53.8297 39.4854 56.3222 34.9326 60.705 31.7974C63.5892 29.7345 67.3851 28.5289 72.2814 28.575C71.7728 30.7416 72.3188 33.1139 73.948 34.8626C76.5447 37.6495 80.9151 37.8038 83.7016 35.2075L92.2158 27.2742C93.617 25.969 94.4125 24.1401 94.4125 22.2251C94.4125 20.3105 93.617 18.4817 92.2158 17.1761L83.7016 9.24313C80.9151 6.64687 76.5447 6.80118 73.948 9.58807C72.3095 11.3469 71.7664 13.7364 72.2896 15.9128Z" fill="#02AE36"/>
</svg>
