<svg width="206" height="206" viewBox="0 0 206 206" fill="none" xmlns="http://www.w3.org/2000/svg">
<g clip-path="url(#clip0_2150_4543)">
<g opacity="0.25">
<path d="M5.26124 115.702C2.01056 112.454 0 107.959 0 102.998C0 93.0773 8.0443 85.0371 17.9653 85.0371H19.8399V120.964H17.9653C13.0048 120.964 8.51398 118.953 5.26124 115.702Z" fill="#A7D0F9"/>
<path d="M200.739 162.152C203.989 165.403 206 169.894 206 174.854C206 184.775 197.956 192.819 188.035 192.819H17.9653C13.0048 192.819 8.51398 190.809 5.26124 187.558C2.01056 184.305 0 179.815 0 174.854C0 164.933 8.0443 156.889 17.9653 156.889H25.7459V159.2C25.7459 162.708 27.8018 165.553 30.3376 165.553H131.741C134.129 165.553 136.094 163.03 136.312 159.806C136.415 159.783 136.518 159.756 136.623 159.734C136.749 159.705 136.873 159.676 136.998 159.645C137.161 159.606 137.322 159.565 137.484 159.524C137.594 159.495 137.703 159.468 137.812 159.439C137.989 159.392 138.166 159.342 138.345 159.293C138.438 159.266 138.531 159.241 138.622 159.215C138.817 159.159 139.009 159.101 139.202 159.042C139.279 159.019 139.355 158.996 139.429 158.974C139.639 158.908 139.849 158.842 140.057 158.772C140.117 158.753 140.175 158.735 140.234 158.714C140.459 158.64 140.684 158.562 140.908 158.481C140.951 158.467 140.993 158.452 141.034 158.438C141.275 158.352 141.516 158.263 141.757 158.17C141.782 158.162 141.806 158.154 141.831 158.143C142.086 158.045 142.344 157.944 142.599 157.841C142.608 157.837 142.616 157.834 142.624 157.83C144.791 156.949 146.899 155.869 148.915 154.588L167.256 172.928C168.574 174.249 170.716 174.249 172.037 172.926L177.314 167.648C178.635 166.328 178.635 164.187 177.314 162.867L171.336 156.889H188.035C192.995 156.889 197.486 158.899 200.739 162.152Z" fill="#A7D0F9"/>
<path d="M200.739 90.2984C203.989 93.549 206 98.0378 206 102.998C206 112.923 197.956 120.964 188.035 120.964H186.16V85.0371H188.035C192.995 85.0371 197.486 87.0477 200.739 90.2984Z" fill="#A7D0F9"/>
<path d="M5.26124 43.8448C2.01056 40.5962 0 36.1054 0 31.1449C0 21.224 8.0443 13.1797 17.9653 13.1797H188.035C192.995 13.1797 197.486 15.1902 200.739 18.4409C203.989 21.6937 206 26.1845 206 31.1449C206 41.0659 197.956 49.1061 188.035 49.1061H185.252C184.127 47.2212 182.067 45.9605 179.714 45.9605H175.102V43.095C175.102 39.5353 172.216 36.6493 168.658 36.6493H113.284C109.458 33.7817 104.71 32.0802 99.5701 32.0802C94.4304 32.0802 89.7645 33.7076 85.8423 36.6493H26.2856C22.7259 36.6493 19.8399 39.5353 19.8399 43.095V49.1061H17.9653C13.0048 49.1061 8.51398 47.0955 5.26124 43.8448Z" fill="#A7D0F9"/>
<path d="M19.8392 54.2207V79.6802H19.7815C12.7507 79.6802 7.05273 73.9802 7.05273 66.9494C7.05273 59.9187 12.7507 54.2207 19.7815 54.2207H19.8392Z" fill="#A7D0F9"/>
<path d="M188.239 66.9494C188.239 69.5244 187.474 71.9182 186.16 73.9205V59.9805C187.474 61.9828 188.239 64.3765 188.239 66.9494Z" fill="#A7D0F9"/>
</g>
<g opacity="0.75">
<path d="M136.312 159.807C136.094 163.031 134.131 165.554 131.743 165.554H30.3378C27.802 165.554 25.7461 162.709 25.7461 159.201V144.896C25.9233 144.911 26.1045 144.919 26.2858 144.919H30.8961V147.785C30.8961 151.344 33.7822 154.23 37.3418 154.23H105.651C114.825 160.27 125.94 162.128 136.31 159.807H136.312Z" fill="#A7D0F9"/>
</g>
<path d="M131.744 166.172H30.3406C27.4669 166.172 25.1309 163.045 25.1309 159.201V144.225L25.7983 144.278C25.9672 144.293 26.132 144.299 26.2886 144.299H31.5169V147.782C31.5169 150.996 34.131 153.61 37.3446 153.61H105.84L105.994 153.711C114.815 159.52 125.817 161.52 136.179 159.201L136.987 159.02L136.931 159.846C136.686 163.451 134.457 166.17 131.746 166.17L131.744 166.172ZM26.3669 145.537V159.201C26.3669 162.363 28.1488 164.936 30.3406 164.936H131.744C133.567 164.936 135.16 163.084 135.596 160.591C125.222 162.678 114.302 160.604 105.469 154.848H37.3446C33.4491 154.848 30.2809 151.68 30.2809 147.784V145.537H26.3669Z" fill="#A7D0F9"/>
<g opacity="0.5">
<path d="M175.102 43.0942V45.9596H37.3416C33.7819 45.9596 30.8959 48.8457 30.8959 52.4054V144.918H26.2856C26.1043 144.918 25.923 144.91 25.7459 144.895C22.4396 144.621 19.8398 141.851 19.8398 138.472V43.0942C19.8398 39.5345 22.7259 36.6484 26.2856 36.6484H168.656C172.216 36.6484 175.102 39.5345 175.102 43.0942Z" fill="#A7D0F9"/>
</g>
<path d="M31.5148 145.537H26.2865C26.097 145.537 25.8972 145.528 25.6953 145.512C22.0656 145.211 19.2207 142.119 19.2207 138.473V43.095C19.2207 39.1995 22.389 36.0312 26.2844 36.0312H168.655C172.551 36.0312 175.719 39.1995 175.719 43.095V46.5784H37.3446C34.131 46.5784 31.5168 49.1926 31.5168 52.4062V145.537H31.5148ZM26.2865 37.2672C23.0729 37.2672 20.4588 39.8814 20.4588 43.095V138.473C20.4588 141.481 22.803 144.033 25.7983 144.28C25.9651 144.295 26.1299 144.301 26.2865 144.301H30.2788V52.4062C30.2788 48.5107 33.4471 45.3424 37.3425 45.3424H174.485V43.095C174.485 39.8814 171.871 37.2672 168.657 37.2672H26.2886H26.2865Z" fill="#A7D0F9"/>
<g opacity="0.25">
<path d="M186.161 52.4067V147.785C186.161 151.344 183.275 154.23 179.715 154.23H149.468C149.746 154.047 150.022 153.862 150.296 153.67C152.222 152.331 154.058 150.803 155.774 149.087C157.09 147.77 158.297 146.386 159.389 144.94C159.723 144.503 160.046 144.058 160.357 143.609C160.38 143.578 160.403 143.543 160.425 143.51C169.804 129.927 169.806 111.821 160.425 98.2355C159.07 96.2723 157.519 94.4039 155.774 92.657C140.192 77.0772 114.928 77.0772 99.3462 92.6591C83.7643 108.243 83.7643 133.505 99.3462 149.087C101.307 151.048 103.423 152.764 105.654 154.23H37.3422C33.7825 154.23 30.8965 151.344 30.8965 147.785V52.4067C30.8965 48.847 33.7825 45.9609 37.3422 45.9609H179.713C183.273 45.9609 186.159 48.847 186.159 52.4067H186.161Z" fill="#A7D0F9"/>
</g>
<path d="M179.714 154.847H147.407L149.127 153.714C149.444 153.504 149.704 153.329 149.94 153.164C151.858 151.831 153.673 150.313 155.336 148.651C156.627 147.359 157.826 145.985 158.895 144.568C159.223 144.139 159.542 143.699 159.849 143.258C159.87 143.229 159.88 143.214 159.89 143.2L159.917 143.161C169.121 129.831 169.121 111.917 159.917 98.5887C158.57 96.6378 157.029 94.79 155.338 93.0967C140.022 77.7827 115.1 77.7827 99.7836 93.0988C84.4696 108.415 84.4696 133.337 99.7836 148.653C101.685 150.554 103.774 152.258 105.995 153.716L107.721 154.851H37.345C33.4495 154.851 30.2812 151.683 30.2812 147.788V52.4055C30.2812 48.5101 33.4495 45.3418 37.345 45.3418H179.716C183.611 45.3418 186.779 48.5101 186.779 52.4055V147.784C186.779 151.679 183.611 154.847 179.716 154.847H179.714ZM151.44 153.611H179.714C182.927 153.611 185.541 150.997 185.541 147.784V52.4055C185.541 49.1919 182.927 46.5778 179.714 46.5778H37.345C34.1314 46.5778 31.5173 49.1919 31.5173 52.4055V147.784C31.5173 150.997 34.1314 153.611 37.345 153.611H103.679C101.994 152.379 100.395 151.009 98.9081 149.522C83.112 133.726 83.112 108.019 98.9081 92.2212C114.706 76.4231 140.411 76.4231 156.209 92.2192C157.954 93.966 159.544 95.8715 160.933 97.8842C165.607 104.653 168.077 112.603 168.077 120.874C168.077 129.143 165.607 137.092 160.933 143.861L160.914 143.888C160.894 143.917 160.873 143.948 160.854 143.975C160.549 144.417 160.218 144.873 159.88 145.314C158.778 146.772 157.544 148.189 156.211 149.522C154.728 151.005 153.127 152.379 151.442 153.611H151.44Z" fill="#A7D0F9"/>
<g opacity="0.75">
<path d="M179.715 45.9609H37.3422C33.7825 45.9609 30.8965 48.847 30.8965 52.4067V64.0086H186.159V52.4067C186.159 48.847 183.273 45.9609 179.713 45.9609H179.715ZM41.0317 57.9769C39.773 57.9769 38.7533 56.9572 38.7533 55.6986C38.7533 54.4399 39.773 53.4202 41.0317 53.4202C42.2903 53.4202 43.3121 54.4399 43.3121 55.6986C43.3121 56.9572 42.2903 57.9769 41.0317 57.9769ZM51.0598 57.9769C49.8011 57.9769 48.7814 56.9572 48.7814 55.6986C48.7814 54.4399 49.8011 53.4202 51.0598 53.4202C52.3184 53.4202 53.3402 54.4399 53.3402 55.6986C53.3402 56.9572 52.3184 57.9769 51.0598 57.9769ZM61.0878 57.9769C59.8292 57.9769 58.8095 56.9572 58.8095 55.6986C58.8095 54.4399 59.8292 53.4202 61.0878 53.4202C62.3465 53.4202 63.3683 54.4399 63.3683 55.6986C63.3683 56.9572 62.3465 57.9769 61.0878 57.9769Z" fill="#A7D0F9"/>
</g>
<path d="M186.159 63.3906H30.8965V64.6266H186.159V63.3906Z" fill="#A7D0F9"/>
<g opacity="0.5">
<path d="M42.7148 76.7872V98.4749C42.7148 99.371 43.44 100.096 44.3361 100.096H63.7104C64.6065 100.096 65.3316 99.371 65.3316 98.4749V82.0217C65.3316 81.5438 65.1194 81.0885 64.7527 80.7816L58.5253 75.5471C58.2328 75.302 57.8641 75.166 57.483 75.166H44.3361C43.44 75.166 42.7148 75.8911 42.7148 76.7872Z" fill="#A7D0F9"/>
</g>
<g opacity="0.5">
<path d="M42.7148 111.178V132.866C42.7148 133.762 43.44 134.487 44.3361 134.487H63.7104C64.6065 134.487 65.3316 133.762 65.3316 132.866V116.412C65.3316 115.934 65.1194 115.479 64.7527 115.172L58.5253 109.938C58.2328 109.693 57.8641 109.557 57.483 109.557H44.3361C43.44 109.557 42.7148 110.282 42.7148 111.178Z" fill="#A7D0F9"/>
</g>
<g opacity="0.25">
<path d="M153.266 136.519C152.045 138.524 150.568 140.413 148.833 142.147C147.101 143.88 145.21 145.357 143.205 146.58C131.622 153.64 116.3 152.163 106.284 142.145C94.5356 130.399 94.5356 111.348 106.284 99.5978C118.034 87.8476 137.085 87.8476 148.833 99.5978C158.851 109.616 160.326 124.938 153.266 136.521V136.519Z" fill="#A7D0F9"/>
</g>
<path d="M127.527 151.575C126.379 151.575 125.232 151.511 124.086 151.381C117.12 150.592 110.812 147.549 105.845 142.583C93.8745 130.612 93.8745 111.135 105.845 99.1619C111.644 93.363 119.355 90.168 127.558 90.168C135.761 90.168 143.471 93.361 149.27 99.1599C154.237 104.127 157.279 110.434 158.068 117.401C158.832 124.162 157.314 131.065 153.794 136.841C152.529 138.914 151.009 140.846 149.27 142.585C147.533 144.321 145.601 145.844 143.527 147.108C138.729 150.034 133.153 151.575 127.527 151.575ZM127.558 91.404C119.686 91.404 112.285 94.4692 106.719 100.035C95.23 111.526 95.23 130.221 106.719 141.709C116.37 151.362 131.241 153.148 142.882 146.054C144.874 144.84 146.728 143.38 148.394 141.711C150.061 140.043 151.524 138.187 152.737 136.199C159.834 124.558 158.048 109.686 148.394 100.033C142.828 94.4672 135.429 91.404 127.558 91.404Z" fill="#A7D0F9"/>
<g opacity="0.75">
<path d="M160.424 98.2338C159.068 96.2706 157.517 94.4022 155.772 92.6553C140.19 77.0755 114.926 77.0755 99.3446 92.6573C83.7627 108.241 83.7627 133.503 99.3446 149.085C101.306 151.046 103.421 152.762 105.652 154.229C114.825 160.269 125.941 162.127 136.311 159.805C140.716 158.82 144.986 157.082 148.914 154.587C149.1 154.47 149.283 154.35 149.466 154.229C149.745 154.045 150.021 153.86 150.295 153.668C152.221 152.329 154.056 150.801 155.772 149.085C157.088 147.769 158.296 146.384 159.387 144.938C159.721 144.501 160.045 144.056 160.356 143.607C160.378 143.576 160.401 143.541 160.424 143.508C169.803 129.925 169.805 111.819 160.424 98.2338ZM153.265 136.519C152.044 138.521 150.566 140.412 148.834 142.145C147.1 143.879 145.21 145.356 143.206 146.578C131.623 153.64 116.3 152.163 106.283 142.145C94.5345 130.394 94.5345 111.346 106.283 99.5975C118.033 87.8452 137.086 87.8452 148.834 99.5934C158.85 109.611 160.327 124.935 153.265 136.519Z" fill="#A7D0F9"/>
</g>
<path d="M127.583 161.415C117.138 161.415 106.762 157.377 98.9096 149.522C83.1135 133.726 83.1135 108.021 98.9096 92.2212C106.562 84.5683 116.737 80.3535 127.56 80.3535C138.383 80.3535 148.558 84.5683 156.211 92.2212C157.957 93.9681 159.546 95.8715 160.934 97.8841C165.608 104.653 168.078 112.603 168.078 120.874C168.078 129.143 165.608 137.09 160.936 143.859C160.911 143.896 160.885 143.933 160.86 143.97C159.492 145.94 157.926 147.812 156.211 149.524C154.499 151.236 152.626 152.804 150.649 154.178C143.659 159.035 135.6 161.415 127.583 161.415ZM127.56 81.5895C117.066 81.5895 107.203 85.6766 99.783 93.0946C84.469 108.411 84.469 133.333 99.783 148.647C113.243 162.107 134.34 164.006 149.944 153.16C151.862 151.827 153.677 150.309 155.337 148.649C156.999 146.988 158.518 145.173 159.848 143.256C159.873 143.221 159.894 143.192 159.912 143.163L159.916 143.157C169.121 129.826 169.121 111.913 159.916 98.5825C158.571 96.6316 157.03 94.7859 155.337 93.0926C147.917 85.6724 138.054 81.5875 127.56 81.5875V81.5895Z" fill="#A7D0F9"/>
<path d="M177.315 167.649L172.037 172.927C170.717 174.249 168.577 174.249 167.256 172.927L148.916 154.587C149.382 154.292 149.841 153.985 150.296 153.668C152.222 152.329 154.058 150.8 155.774 149.084C157.09 147.768 158.297 146.382 159.389 144.938L177.317 162.866C178.638 164.186 178.638 166.326 177.317 167.645L177.315 167.649Z" fill="#A7D0F9"/>
<path d="M130.661 132.448C129.75 131.638 128.615 131.236 127.252 131.236C125.888 131.236 124.759 131.64 123.848 132.448C122.938 133.259 122.479 134.289 122.479 135.552C122.479 136.815 122.938 137.845 123.848 138.65C124.759 139.46 125.894 139.862 127.252 139.862C128.609 139.862 129.75 139.458 130.661 138.65C131.571 137.845 132.025 136.811 132.025 135.552C132.025 134.293 131.571 133.259 130.661 132.448Z" fill="#A7D0F9"/>
<path d="M136.452 104.51C134.372 102.754 131.428 101.879 127.635 101.879C123.843 101.879 120.86 102.831 118.753 104.724C116.639 106.619 115.566 109.27 115.537 112.677H124.162C124.195 111.4 124.527 110.391 125.159 109.641C125.786 108.891 126.614 108.516 127.635 108.516C129.848 108.516 130.952 109.804 130.952 112.375C130.952 113.429 130.625 114.393 129.969 115.267C129.312 116.149 128.356 117.113 127.098 118.165C125.837 119.22 124.931 120.466 124.366 121.906C123.806 123.342 123.528 125.303 123.528 127.788H130.828C130.857 126.494 131.037 125.429 131.362 124.584C131.685 123.742 132.264 122.922 133.097 122.12L136.034 119.389C137.274 118.182 138.181 116.997 138.743 115.84C139.301 114.684 139.581 113.4 139.581 111.987C139.581 108.757 138.539 106.261 136.452 104.507V104.51Z" fill="#A7D0F9"/>
<path d="M121.859 54.9843C121.859 63.797 116.746 71.4128 109.324 75.0281C106.38 76.468 103.07 77.2714 99.5722 77.2714C87.2657 77.2714 77.2871 67.2949 77.2871 54.9843C77.2871 49.5583 79.2256 44.5834 82.4515 40.7188C86.5365 35.8181 92.6897 32.6992 99.5701 32.6992C111.881 32.6992 121.857 42.6758 121.857 54.9843H121.859Z" fill="white"/>
<path d="M99.5717 77.3739C87.2282 77.3739 77.1836 67.3294 77.1836 54.9838C77.1836 49.7514 79.0273 44.6611 82.3727 40.6524C86.639 35.5333 92.9076 32.5957 99.5717 32.5957C111.917 32.5957 121.962 42.6382 121.962 54.9838C121.962 59.2624 120.751 63.4215 118.462 67.0101C116.233 70.5038 113.087 73.3095 109.369 75.1203C106.31 76.6158 103.014 77.3739 99.5717 77.3739ZM99.5717 32.8017C92.9694 32.8017 86.7585 35.7104 82.5314 40.7842C79.2168 44.7559 77.3896 49.7988 77.3896 54.9838C77.3896 67.2161 87.3394 77.1679 99.5717 77.1679C102.983 77.1679 106.248 76.416 109.278 74.9349C116.975 71.1857 121.756 63.541 121.756 54.9838C121.756 42.7536 111.804 32.8017 99.5717 32.8017Z" fill="black"/>
<g opacity="0.25">
<path d="M121.857 54.9823C121.857 63.795 116.744 71.4108 109.322 75.0261C106.379 76.4661 103.068 77.2695 99.5702 77.2695C87.2638 77.2695 77.2852 67.2929 77.2852 54.9823C77.2852 49.5563 79.2236 44.5814 82.4496 40.7168C86.5346 35.8161 92.6878 32.6973 99.5682 32.6973C111.879 32.6973 121.855 42.6738 121.855 54.9823H121.857Z" fill="#A7D0F9"/>
</g>
<path d="M99.571 77.8883C86.9432 77.8883 76.668 67.613 76.668 54.9832C76.668 49.6292 78.5529 44.4236 81.9766 40.3221C86.3397 35.0856 92.7524 32.0801 99.571 32.0801C112.201 32.0801 122.476 42.3533 122.476 54.9832C122.476 59.3607 121.238 63.6146 118.894 67.2875C116.613 70.8616 113.398 73.7312 109.593 75.5832C106.464 77.1137 103.092 77.8883 99.571 77.8883ZM99.571 33.3161C93.1212 33.3161 87.0545 36.1589 82.9262 41.1132C79.6879 44.9922 77.904 49.9176 77.904 54.9832C77.904 66.9312 87.623 76.6523 99.571 76.6523C102.902 76.6523 106.093 75.9189 109.051 74.4728C116.57 70.8122 121.24 63.3447 121.24 54.9832C121.24 43.0372 111.519 33.3161 99.571 33.3161Z" fill="#A7D0F9"/>
<g opacity="0.75">
<path d="M107.961 57.1804C107.961 60.427 107.232 62.9319 105.774 64.6932C104.315 66.4545 102.259 67.3342 99.606 67.3342C96.9527 67.3342 94.8618 66.4484 93.3971 64.6768C91.9325 62.9052 91.2012 60.4064 91.2012 57.1804V52.7885C91.2012 49.5419 91.9304 47.037 93.3889 45.2757C94.8474 43.5144 96.9074 42.6348 99.573 42.6348C102.239 42.6348 104.301 43.5206 105.765 45.2922C107.23 47.0638 107.961 49.5687 107.961 52.805V57.1804ZM102.397 52.0778C102.397 50.3495 102.171 49.0599 101.72 48.205C101.268 47.3522 100.554 46.9257 99.573 46.9257C98.5924 46.9257 97.9188 47.3213 97.4842 48.1144C97.0495 48.9075 96.8147 50.1064 96.7817 51.7132V57.8561C96.7817 59.6504 97.0063 60.9626 97.4595 61.7948C97.9106 62.625 98.6254 63.0411 99.606 63.0411C100.587 63.0411 101.252 62.6374 101.703 61.8278C102.154 61.0182 102.385 59.7492 102.397 58.023V52.0799V52.0778Z" fill="#A7D0F9"/>
</g>
<g opacity="0.5">
<path d="M78.9422 146.785C80.1982 146.785 81.2164 145.767 81.2164 144.511C81.2164 143.255 80.1982 142.236 78.9422 142.236C77.6862 142.236 76.668 143.255 76.668 144.511C76.668 145.767 77.6862 146.785 78.9422 146.785Z" fill="#A7D0F9"/>
<path d="M69.6261 173.918C70.6978 173.918 71.5666 173.049 71.5666 171.978C71.5666 170.906 70.6978 170.037 69.6261 170.037C68.5543 170.037 67.6855 170.906 67.6855 171.978C67.6855 173.049 68.5543 173.918 69.6261 173.918Z" fill="#A7D0F9"/>
<path d="M144.027 172.56C145.522 172.56 146.734 171.348 146.734 169.853C146.734 168.358 145.522 167.146 144.027 167.146C142.532 167.146 141.32 168.358 141.32 169.853C141.32 171.348 142.532 172.56 144.027 172.56Z" fill="#A7D0F9"/>
<path d="M181.043 41.8869C181.979 41.8869 182.738 41.1278 182.738 40.1915C182.738 39.2551 181.979 38.4961 181.043 38.4961C180.107 38.4961 179.348 39.2551 179.348 40.1915C179.348 41.1278 180.107 41.8869 181.043 41.8869Z" fill="#A7D0F9"/>
<path d="M169.374 96.1903C171.739 96.1903 173.655 94.2737 173.655 91.9096C173.655 89.5454 171.739 87.6289 169.374 87.6289C167.01 87.6289 165.094 89.5454 165.094 91.9096C165.094 94.2737 167.01 96.1903 169.374 96.1903Z" fill="#A7D0F9"/>
<path d="M36.9626 172.56C38.3529 172.56 39.4799 171.433 39.4799 170.043C39.4799 168.652 38.3529 167.525 36.9626 167.525C35.5724 167.525 34.4453 168.652 34.4453 170.043C34.4453 171.433 35.5724 172.56 36.9626 172.56Z" fill="#A7D0F9"/>
<path d="M182.232 161.805C182.888 161.805 183.42 161.273 183.42 160.616C183.42 159.96 182.888 159.428 182.232 159.428C181.575 159.428 181.043 159.96 181.043 160.616C181.043 161.273 181.575 161.805 182.232 161.805Z" fill="#A7D0F9"/>
</g>
</g>
<defs>
<clipPath id="clip0_2150_4543">
<rect width="206" height="206" fill="white"/>
</clipPath>
</defs>
</svg>
