<svg width="24" height="24" viewBox="0 0 24 24" fill="none" xmlns="http://www.w3.org/2000/svg">
<rect width="24" height="24" rx="2" fill="#6666FF"/>
<path d="M14 9.33333H14.0067M6 8C6 7.46957 6.21071 6.96086 6.58579 6.58579C6.96086 6.21071 7.46957 6 8 6H16C16.5304 6 17.0391 6.21071 17.4142 6.58579C17.7893 6.96086 18 7.46957 18 8V16C18 16.5304 17.7893 17.0391 17.4142 17.4142C17.0391 17.7893 16.5304 18 16 18H8C7.46957 18 6.96086 17.7893 6.58579 17.4142C6.21071 17.0391 6 16.5304 6 16V8Z" stroke="#F2DB00" stroke-width="1.5" stroke-linecap="round" stroke-linejoin="round"/>
<path d="M6 14.6666L9.33333 11.3332C9.952 10.7379 10.7147 10.7379 11.3333 11.3332L14.6667 14.6666" stroke="#F2DB00" stroke-width="1.5" stroke-linecap="round" stroke-linejoin="round"/>
<path d="M13.334 13.3339L14.0007 12.6672C14.6193 12.0719 15.382 12.0719 16.0007 12.6672L18.0007 14.6672" stroke="#F2DB00" stroke-width="1.5" stroke-linecap="round" stroke-linejoin="round"/>
</svg>
