<svg width="24" height="24" viewBox="0 0 24 24" fill="none" xmlns="http://www.w3.org/2000/svg">
<rect x="0.75" y="0.75" width="22.5" height="22.5" rx="4.25" fill="white"/>
<rect x="0.75" y="0.75" width="22.5" height="22.5" rx="4.25" stroke="#0512F5" stroke-width="1.5"/>
<path d="M6.56714 15.1604H17.4316V16.4567C17.4316 16.6121 17.4823 16.7416 17.5837 16.8455C17.6852 16.9485 17.8123 17 17.9652 17C18.1181 17 18.2457 16.9485 18.3479 16.8455C18.4501 16.7425 18.5008 16.6129 18.5 16.4567V12.6181C18.5 12.0679 18.3298 11.6035 17.9894 11.2249C17.6489 10.8464 17.2156 10.6313 16.6892 10.5798V8.98062C16.6892 8.41648 16.5029 7.94514 16.1303 7.5666C15.7577 7.18805 15.2938 6.99919 14.7385 7H9.26033C8.70503 7 8.24108 7.18887 7.86846 7.5666C7.49585 7.94432 7.30995 8.41567 7.31075 8.98062V10.5798C6.78282 10.6322 6.34904 10.8472 6.00942 11.2249C5.66981 11.6027 5.5 12.067 5.5 12.6181V16.4567C5.5 16.6121 5.5503 16.7416 5.6509 16.8455C5.7523 16.9485 5.87986 17 6.03357 17C6.18648 17 6.31363 16.9485 6.41503 16.8455C6.51644 16.7425 6.56714 16.6129 6.56714 16.4567V15.1604ZM6.56714 14.0751V12.6181C6.56714 12.3319 6.65969 12.0944 6.84478 11.9056C7.02988 11.7167 7.26448 11.6223 7.54856 11.6223H16.4538C16.7355 11.6223 16.9689 11.7163 17.154 11.9043C17.3391 12.0924 17.432 12.3303 17.4329 12.6181V14.0751H6.56714ZM8.37789 10.5381V8.83836C8.37789 8.61761 8.4475 8.43693 8.58673 8.2963C8.72596 8.15486 8.90421 8.08413 9.1215 8.08413H14.8785C15.095 8.08413 15.2728 8.15486 15.4121 8.2963C15.5513 8.43774 15.6209 8.61843 15.6209 8.83836V10.5369L8.37789 10.5381Z" fill="#0512F5"/>
</svg>
