<svg width="20" height="23" viewBox="0 0 20 23" fill="none" xmlns="http://www.w3.org/2000/svg">
<path fill-rule="evenodd" clip-rule="evenodd" d="M10 0.666992C12.5859 0.666992 15.0658 1.69422 16.8943 3.5227C18.7228 5.35118 19.75 7.83113 19.75 10.417C19.75 13.7472 17.9343 16.4728 16.0212 18.4282C15.0653 19.3946 14.0223 20.2708 12.9055 21.0456L12.444 21.3597L12.2273 21.5038L11.8189 21.7638L11.4549 21.9859L11.0043 22.2481C10.6984 22.4227 10.3522 22.5145 10 22.5145C9.64778 22.5145 9.30165 22.4227 8.99575 22.2481L8.54508 21.9859L7.98175 21.6392L7.77375 21.5038L7.32958 21.2081C6.12473 20.3929 5.00248 19.4618 3.97883 18.4282C2.06567 16.4717 0.25 13.7472 0.25 10.417C0.25 7.83113 1.27723 5.35118 3.10571 3.5227C4.93419 1.69422 7.41414 0.666992 10 0.666992ZM10 2.83366C7.98878 2.83366 6.05992 3.63261 4.63777 5.05477C3.21562 6.47692 2.41667 8.40577 2.41667 10.417C2.41667 12.9325 3.79467 15.1403 5.52692 16.9127C6.27174 17.6667 7.0768 18.3587 7.93408 18.9818L8.43025 19.335C8.59058 19.4469 8.74478 19.5509 8.89283 19.647L9.31533 19.9178L9.68692 20.1442L10 20.3273L10.4929 20.0359L10.8905 19.7867C11.1021 19.6524 11.3285 19.5018 11.5698 19.335L12.0659 18.9818C12.9232 18.3587 13.7283 17.6667 14.4731 16.9127C16.2053 15.1414 17.5833 12.9325 17.5833 10.417C17.5833 8.40577 16.7844 6.47692 15.3622 5.05477C13.9401 3.63261 12.0112 2.83366 10 2.83366ZM10 6.08366C11.1493 6.08366 12.2515 6.54021 13.0641 7.35286C13.8768 8.16552 14.3333 9.26772 14.3333 10.417C14.3333 11.5663 13.8768 12.6685 13.0641 13.4811C12.2515 14.2938 11.1493 14.7503 10 14.7503C8.85073 14.7503 7.74853 14.2938 6.93587 13.4811C6.12321 12.6685 5.66667 11.5663 5.66667 10.417C5.66667 9.26772 6.12321 8.16552 6.93587 7.35286C7.74853 6.54021 8.85073 6.08366 10 6.08366ZM10 8.25033C9.42536 8.25033 8.87426 8.4786 8.46794 8.88493C8.06161 9.29126 7.83333 9.84236 7.83333 10.417C7.83333 10.9916 8.06161 11.5427 8.46794 11.9491C8.87426 12.3554 9.42536 12.5837 10 12.5837C10.5746 12.5837 11.1257 12.3554 11.5321 11.9491C11.9384 11.5427 12.1667 10.9916 12.1667 10.417C12.1667 9.84236 11.9384 9.29126 11.5321 8.88493C11.1257 8.4786 10.5746 8.25033 10 8.25033Z" fill="white"/>
</svg>
