<svg width="22" height="22" viewBox="0 0 22 22" fill="none" xmlns="http://www.w3.org/2000/svg">
<path fill-rule="evenodd" clip-rule="evenodd" d="M8.71 0.2925C8.32 -0.0975 7.69 -0.0975 7.3 0.2925L0.3 7.2925C0.11 7.4825 0 7.7325 0 8.0025V15.0025C0 15.5525 0.45 16.0025 1 16.0025H15C15.55 16.0025 16 15.5525 16 15.0025V8.0025C16 7.7325 15.89 7.4825 15.71 7.2925L8.71 0.2925ZM2 14.0025V8.4125L8 2.4125L14 8.4125V14.0025H2ZM21 14.0024V2.00244C21.55 2.00244 22 1.55244 22 1.00244C22 0.452441 21.55 0.00244141 21 0.00244141H19C18.45 0.00244141 18 0.452441 18 1.00244C18 1.55244 18.45 2.00244 19 2.00244V14.0024C18.45 14.0024 18 14.4524 18 15.0024C18 15.5524 18.45 16.0024 19 16.0024H21C21.55 16.0024 22 15.5524 22 15.0024C22 14.4524 21.55 14.0024 21 14.0024ZM14 19.0024C14 18.4524 14.45 18.0024 15 18.0024C15.55 18.0024 16 18.4524 16 19.0024V21.0024C16 21.5524 15.55 22.0024 15 22.0024C14.45 22.0024 14 21.5524 14 21.0024H2C2 21.5524 1.55 22.0024 1 22.0024C0.45 22.0024 0 21.5524 0 21.0024V19.0024C0 18.4524 0.45 18.0024 1 18.0024C1.55 18.0024 2 18.4524 2 19.0024H14Z" fill="url(#paint0_linear_5293_6002)"/>
<defs>
<linearGradient id="paint0_linear_5293_6002" x1="8" y1="0.5" x2="8" y2="22.0024" gradientUnits="userSpaceOnUse">
<stop stop-color="#A2A7AF"/>
<stop offset="1" stop-color="#444649"/>
</linearGradient>
</defs>
</svg>
