<svg width="22" height="22" viewBox="0 0 22 22" fill="none" xmlns="http://www.w3.org/2000/svg">
<path fill-rule="evenodd" clip-rule="evenodd" d="M19.7025 9.28062C20.0925 8.90758 20.0925 8.30497 19.7025 7.93193L11.7025 0.279782C11.3125 -0.0932606 10.6825 -0.0932606 10.2925 0.279782L2.2925 7.93193C1.9025 8.30497 1.9025 8.90758 2.2925 9.28062C2.6825 9.65366 3.3125 9.65366 3.7025 9.28062L3.9925 8.99367V11.4782H5.9925V7.08063L10.9925 2.29804L15.9925 7.08063V11.4782H17.9925V8.99367L18.2825 9.27106C18.6725 9.65366 19.3125 9.65366 19.7025 9.28062ZM1 14.9797C2.38668 14.9797 3.01699 15.358 3.81427 15.8365L3.82 15.8399C6.43 17.4003 8.97 17.3702 11.51 15.8399C13.45 14.6797 15.19 14.6597 17.15 15.8399C18.04 16.38 19.05 16.9802 21 16.9802C21.55 16.9802 22 16.5301 22 15.9799C22 15.4298 21.55 14.9797 21 14.9797C19.6133 14.9797 18.983 14.6015 18.1857 14.123L18.18 14.1195C15.6 12.5692 13.06 12.5692 10.48 14.1195C8.55 15.2798 6.8 15.2998 4.84 14.1195L4.82055 14.108C3.93525 13.5806 2.92588 12.9793 1 12.9793C0.45 12.9793 0 13.4294 0 13.9795C0 14.5296 0.45 14.9797 1 14.9797ZM21 19.9807C19.6133 19.9807 18.983 19.6024 18.1857 19.124L18.18 19.1205C15.6 17.5702 13.06 17.5702 10.48 19.1205C8.55 20.2808 6.8 20.3008 4.84 19.1205L4.82055 19.1089C3.93525 18.5816 2.92588 17.9803 1 17.9803C0.45 17.9803 0 18.4304 0 18.9805C0 19.5306 0.45 19.9807 1 19.9807C2.38668 19.9807 3.01699 20.359 3.81427 20.8375L3.82 20.8409C6.43 22.4012 8.97 22.3712 11.51 20.8409C13.45 19.6806 15.19 19.6606 17.15 20.8409C18.04 21.381 19.05 21.9811 21 21.9811C21.55 21.9811 22 21.531 22 20.9809C22 20.4308 21.55 19.9807 21 19.9807Z" fill="url(#paint0_linear_2197_6119)"/>
<defs>
<linearGradient id="paint0_linear_2197_6119" x1="10.9975" y1="0" x2="11" y2="20" gradientUnits="userSpaceOnUse">
<stop stop-color="#A2A7AF"/>
<stop offset="1" stop-color="#494949"/>
</linearGradient>
</defs>
</svg>
