<svg width="22" height="22" viewBox="0 0 22 22" fill="none" xmlns="http://www.w3.org/2000/svg">
<path d="M22 11.94C22 11.93 22 11.93 22 11.92C21.96 6.22 17.58 1.54999 12 1.03999V1C12 0.45 11.55 0 11 0C10.45 0 10 0.45 10 1V1.05C4.43 1.56 0.04 6.22999 0 11.93C0.15 13.33 1.53 13.17 1.89 12.45C2.19 11.86 2.79 11.5 3.5 11.5C4.21 11.5 4.81 11.85 5.11 12.45C5.49 13.2 6.55 13.14 6.9 12.45C7.2 11.86 7.8 11.5 8.51 11.5C9.15 11.5 9.69 11.8 10.01 12.3V19C10.01 19.55 9.56 20 9.01 20C8.46 20 8.01 19.55 8.01 19V18C8.01 17.45 7.56 17 7.01 17C6.46 17 6.01 17.45 6.01 18V19C6.01 20.65 7.36 22 9.01 22C10.66 22 12.01 20.65 12.01 19V12.3C12.33 11.81 12.87 11.5 13.51 11.5C14.22 11.5 14.82 11.85 15.12 12.45C15.49 13.19 16.55 13.16 16.91 12.45C17.21 11.86 17.81 11.5 18.52 11.5C19.23 11.5 19.83 11.85 20.13 12.45C20.6 13.43 22 13 22 11.94ZM16 10.41C15.33 9.83 14.45 9.5 13.5 9.5C12.55 9.5 11.67 9.84 11 10.41C10.33 9.83 9.45 9.5 8.5 9.5C7.55 9.5 6.67 9.84 6 10.41C5.33 9.83 4.45 9.5 3.5 9.5C3.09 9.5 2.69 9.57 2.31 9.69C3.34 5.84 6.84 3 11 3C15.16 3 18.66 5.84 19.69 9.69C19.31 9.57 18.92 9.5 18.5 9.5C17.55 9.5 16.67 9.84 16 10.41Z" fill="url(#paint0_linear_2197_6102)"/>
<defs>
<linearGradient id="paint0_linear_2197_6102" x1="11" y1="0" x2="11" y2="22" gradientUnits="userSpaceOnUse">
<stop stop-color="#A2A7AF"/>
<stop offset="1" stop-color="#494949"/>
</linearGradient>
</defs>
</svg>
