<svg width="17" height="16" viewBox="0 0 17 16" fill="none" xmlns="http://www.w3.org/2000/svg">
<path d="M8.65625 12H8.34375C7.9125 12 7.5625 11.65 7.5625 11.2188V10.4375H6.78125C6.35 10.4375 6 10.0875 6 9.65625V9.34375C6 8.9125 6.35 8.5625 6.78125 8.5625H7.5625V7.78125C7.5625 7.35 7.9125 7 8.34375 7H8.65625C9.0875 7 9.4375 7.35 9.4375 7.78125V8.5625H10.2188C10.65 8.5625 11 8.9125 11 9.34375V9.65625C11 10.0875 10.65 10.4375 10.2188 10.4375H9.4375V11.2188C9.4375 11.65 9.0875 12 8.65625 12Z" fill="url(#paint0_linear_5622_6966)"/>
<path d="M9.25438 0.292454C8.84 -0.0974848 8.17062 -0.0974848 7.75625 0.292454L0.31875 7.29136C0.116875 7.48133 0 7.73129 0 8.00125V15.0002C0 15.5501 0.478125 16 1.0625 16H15.9375C16.5219 16 17 15.5501 17 15.0002V8.00125C17 7.73129 16.8831 7.48133 16.6919 7.29136L9.25438 0.292454ZM14.875 14.0003H2.125V8.41118L8.5 2.41212L14.875 8.41118V14.0003Z" fill="url(#paint1_linear_5622_6966)"/>
<defs>
<linearGradient id="paint0_linear_5622_6966" x1="8.5" y1="7" x2="8.5" y2="12" gradientUnits="userSpaceOnUse">
<stop stop-color="#A2A7AF"/>
<stop offset="1" stop-color="#494949"/>
</linearGradient>
<linearGradient id="paint1_linear_5622_6966" x1="8.5" y1="0" x2="8.5" y2="16" gradientUnits="userSpaceOnUse">
<stop stop-color="#A2A7AF"/>
<stop offset="1" stop-color="#494949"/>
</linearGradient>
</defs>
</svg>
