<svg width="22" height="18" viewBox="0 0 22 18" fill="none" xmlns="http://www.w3.org/2000/svg">
<path fill-rule="evenodd" clip-rule="evenodd" d="M21 0H1C0.45 0 0 0.45 0 1V17C0 17.55 0.45 18 1 18H21C21.55 18 22 17.55 22 17V1C22 0.45 21.55 0 21 0ZM7 16H5V6H7V16ZM9 16V6H12V16H9ZM20 16H14V5C14 4.45 13.55 4 13 4H4C3.45 4 3 4.45 3 5V16H2V2H20V16ZM16.7105 9.71055L17.0005 9.41055L17.2905 9.70055C17.6805 10.0905 18.3105 10.0905 18.7005 9.70055C19.0905 9.31055 19.0905 8.68055 18.7005 8.29055L17.7005 7.29055C17.3105 6.90055 16.6805 6.90055 16.2905 7.29055L15.2905 8.29055C14.9005 8.68055 14.9005 9.31055 15.2905 9.70055C15.6805 10.1005 16.3205 10.1005 16.7105 9.71055ZM17.7003 14.7103C17.3103 15.1003 16.6803 15.1003 16.2903 14.7103L15.3003 13.7103C14.9103 13.3203 14.9103 12.6903 15.3003 12.3003C15.6903 11.9103 16.3203 11.9103 16.7103 12.3003L17.0003 12.5903L17.2903 12.3003C17.6803 11.9103 18.3103 11.9103 18.7003 12.3003C19.0903 12.6903 19.0903 13.3203 18.7003 13.7103L17.7003 14.7103Z" fill="url(#paint0_linear_2197_6087)"/>
<defs>
<linearGradient id="paint0_linear_2197_6087" x1="17" y1="3.11909e-08" x2="16.5" y2="17.5" gradientUnits="userSpaceOnUse">
<stop stop-color="#A2A7AF"/>
<stop offset="1" stop-color="#494949"/>
</linearGradient>
</defs>
</svg>
