<svg width="22" height="18" viewBox="0 0 22 18" fill="none" xmlns="http://www.w3.org/2000/svg">
<path fill-rule="evenodd" clip-rule="evenodd" d="M18.7072 2.2925L21.7061 5.2925C22.3359 5.9225 21.886 7.00249 20.9964 7.00249V17.0025C20.9964 17.5525 20.5465 18.0025 19.9967 18.0025H2.00328C1.45348 18.0025 1.00364 17.5525 1.00364 17.0025V7.00249C0.113969 7.00249 -0.335866 5.9225 0.293905 5.2925L3.29281 2.2925C3.48274 2.1125 3.73265 2.00249 4.00255 2.00249H8.59087L10.2903 0.2925C10.6801 -0.0975 11.3099 -0.0975 11.6997 0.2925L13.4091 2.00249H17.9974C18.2673 2.00249 18.5173 2.1125 18.7072 2.2925ZM18.5872 5.00249L17.5876 4.00249H15.4184L16.418 5.00249H18.5872ZM11 2.41254L13.9989 5.4125V16.0025H8.00109V5.4125C8.10474 5.31824 10.8374 2.57626 11 2.41254ZM6.58161 4.00249H4.41241L3.41277 5.00249H5.58198L6.58161 4.00249ZM4.00255 7.00249H3.00292H2.99292V16.0025H5.99182V7.4225L5.70193 7.71248C5.31207 8.10248 4.6823 8.10248 4.29245 7.71248C4.10252 7.51248 4.00255 7.26249 4.00255 7.00249ZM15.9982 16.0025H18.9871V6.99248H17.9874C17.9874 7.25248 17.8975 7.5025 17.6976 7.7025C17.3077 8.0925 16.6779 8.0925 16.2881 7.7025L15.9982 7.4125V16.0025ZM12.0002 6.00244C12.0002 6.55473 11.5525 7.00244 11.0002 7.00244C10.448 7.00244 10.0002 6.55473 10.0002 6.00244C10.0002 5.45016 10.448 5.00244 11.0002 5.00244C11.5525 5.00244 12.0002 5.45016 12.0002 6.00244Z" fill="url(#paint0_linear_5622_6959)"/>
<defs>
<linearGradient id="paint0_linear_5622_6959" x1="11" y1="0" x2="11" y2="18.0025" gradientUnits="userSpaceOnUse">
<stop stop-color="#A2A7AF"/>
<stop offset="1" stop-color="#494949"/>
</linearGradient>
</defs>
</svg>
