<svg width="22" height="22" viewBox="0 0 22 22" fill="none" xmlns="http://www.w3.org/2000/svg">
<path d="M21.7113 16.2925C21.6113 16.1925 16.8338 11.4125 17.0037 11.5825V8.41249L17.2936 8.70249C17.6834 9.09249 18.313 9.09249 18.7028 8.70249C19.0926 8.31249 19.0926 7.6825 18.7028 7.2925C17.8633 6.4525 11.5266 0.1125 11.7065 0.2925C11.3167 -0.0975 10.687 -0.0975 10.2972 0.2925C9.78745 0.8025 3.17086 7.4225 3.3008 7.2925C2.911 7.6825 2.911 8.31249 3.3008 8.70249C3.6906 9.09249 4.32027 9.09249 4.71007 8.70249L4.99992 8.41249V11.5825C4.86999 11.7125 0.192401 16.3925 0.292349 16.2925C-0.0974497 16.6825 -0.0974497 17.3125 0.292349 17.7025C0.682148 18.0925 1.31182 18.0925 1.70162 17.7025L2.99096 16.4125V21.0025C2.99096 21.5525 3.44072 22.0025 3.99044 22.0025H17.9832C18.5329 22.0025 18.9827 21.5525 18.9827 21.0025V16.4125L20.272 17.7025C20.6618 18.0925 21.2915 18.0925 21.6813 17.7025C22.1011 17.3225 22.1011 16.6825 21.7113 16.2925ZM7.00888 6.42249L11.0068 2.42249L15.0048 6.42249V9.59249L11.7165 6.30249C11.3267 5.91249 10.697 5.91249 10.3072 6.30249L7.01888 9.59249V6.42249H7.00888ZM17.0037 20.0025H5.00991V14.4125C5.10986 14.3125 11.3167 8.10249 11.0068 8.41249C12.606 10.0125 17.1037 14.5125 17.0037 14.4125V20.0025Z" fill="url(#paint0_linear_2197_6097)"/>
<defs>
<linearGradient id="paint0_linear_2197_6097" x1="11" y1="0" x2="11" y2="22.0025" gradientUnits="userSpaceOnUse">
<stop stop-color="#A2A7AF"/>
<stop offset="1" stop-color="#494949"/>
</linearGradient>
</defs>
</svg>
