<svg width="22" height="18" viewBox="0 0 22 18" fill="none" xmlns="http://www.w3.org/2000/svg">
<path d="M21.9173 7.5L17.9074 0.5C17.7269 0.19 17.3961 0 17.0352 0H5.00562C4.64473 0 4.31392 0.19 4.13347 0.5L0.123602 7.5C-0.237286 8.13 0.233873 9 0.995748 9C1.54711 9 1.77767 9.12999 2.14859 9.35999C2.37916 9.49999 2.64982 9.66001 3.00068 9.79001V17C3.00068 17.55 3.4518 18 4.00315 18C6.80004 18 14.91 18 18.0377 18C18.5891 18 19.0402 17.55 19.0402 17V9.78C19.391 9.65 19.6617 9.48999 19.8923 9.35999C20.2632 9.13999 20.4938 9 21.0451 9C21.6466 9 22.218 8.48 21.9173 7.5ZM5.58705 2H16.4538L19.4913 7.31C19.2407 7.42 19.0301 7.54001 18.8497 7.64001C18.0277 8.13001 17.356 8.13001 16.534 7.64001C15.0904 6.77001 13.6068 6.77001 12.1632 7.64001C11.3512 8.13001 10.6696 8.13001 9.85756 7.64001C8.41401 6.77001 6.93036 6.77001 5.4868 7.64001C4.67481 8.13001 3.99313 8.13001 3.18113 7.64001C3.00068 7.53001 2.79017 7.42 2.54957 7.31L5.58705 2ZM8.01302 16V13H10.018V16H8.01302ZM12.0229 16V12C12.0229 11.45 11.5718 11 11.0204 11H7.01056C6.4592 11 6.00809 11.45 6.00809 12V16H5.00562V9.94C5.70735 9.83 6.16848 9.56001 6.51935 9.35001C7.33134 8.86001 8.01303 8.86001 8.82502 9.35001C10.2686 10.22 11.7522 10.22 13.1958 9.35001C14.0178 8.86001 14.6895 8.86001 15.5115 9.35001C15.8623 9.56001 16.3235 9.83 17.0352 9.94V16H12.0229Z" fill="url(#paint0_linear_5622_6974)"/>
<defs>
<linearGradient id="paint0_linear_5622_6974" x1="11" y1="0" x2="11" y2="18" gradientUnits="userSpaceOnUse">
<stop stop-color="#A2A7AF"/>
<stop offset="1" stop-color="#494949"/>
</linearGradient>
</defs>
</svg>
