<svg width="22" height="22" viewBox="0 0 22 22" fill="none" xmlns="http://www.w3.org/2000/svg">
<path fill-rule="evenodd" clip-rule="evenodd" d="M19.7025 8.2925C20.0925 8.6825 20.0925 9.3125 19.7025 9.7025C19.3125 10.0925 18.6725 10.0925 18.2825 9.6925L17.9925 9.4025V16.9925C17.9925 17.5425 17.5425 17.9925 16.9925 17.9925H4.9925C4.4425 17.9925 3.9925 17.5425 3.9925 16.9925V9.4025L3.7025 9.7025C3.3125 10.0925 2.6825 10.0925 2.2925 9.7025C1.9025 9.3125 1.9025 8.6825 2.2925 8.2925L10.2925 0.2925C10.6825 -0.0975 11.3125 -0.0975 11.7025 0.2925L19.7025 8.2925ZM5.9925 15.9925H15.9925V7.4025L10.9925 2.4025L5.9925 7.4025V15.9925ZM1.2925 18.2825C1.6825 17.8925 2.3125 17.8925 2.7025 18.2825C3.0925 18.6725 3.0925 19.3125 2.6925 19.7025L2.4025 19.9925L2.7025 20.2825C3.0925 20.6725 3.0925 21.3025 2.7025 21.6925C2.3125 22.0825 1.6825 22.0825 1.2925 21.6925L0.2925 20.6925C-0.0975 20.3025 -0.0975 19.6725 0.2925 19.2825L1.2925 18.2825ZM21.7025 19.2825L20.7025 18.2825C20.3125 17.8925 19.6825 17.8925 19.2925 18.2825C18.9025 18.6725 18.9025 19.3025 19.2925 19.6925L19.5825 19.9925L19.2925 20.2825C18.9025 20.6725 18.9025 21.3025 19.2925 21.6925C19.6825 22.0825 20.3125 22.0825 20.7025 21.6925L21.7025 20.6925C22.0925 20.3125 22.0925 19.6725 21.7025 19.2825ZM4.99219 18.9922H16.9922C17.5422 18.9922 17.9922 19.4422 17.9922 19.9922C17.9922 20.5422 17.5422 20.9922 16.9922 20.9922H4.99219C4.44219 20.9922 3.99219 20.5422 3.99219 19.9922C3.99219 19.4422 4.44219 18.9922 4.99219 18.9922Z" fill="url(#paint0_linear_2197_6107)"/>
<defs>
<linearGradient id="paint0_linear_2197_6107" x1="10.9975" y1="0" x2="10.9975" y2="21.985" gradientUnits="userSpaceOnUse">
<stop stop-color="#A2A7AF"/>
<stop offset="1" stop-color="#494949"/>
</linearGradient>
</defs>
</svg>
