<svg width="22" height="14" viewBox="0 0 22 14" fill="none" xmlns="http://www.w3.org/2000/svg">
<g clip-path="url(#clip0_2197_6076)">
<path d="M6.52385 0.951854C6.19385 0.664486 5.66077 0.664486 5.33077 0.951854L0.253846 5.37291C0.0930769 5.51291 0 5.69712 0 5.89606V13.2645C0 13.6697 0.380769 14.0013 0.846154 14.0013H11C11.4654 14.0013 11.8462 13.6697 11.8462 13.2645V5.89606C11.8462 5.69712 11.7531 5.51291 11.6008 5.37291L6.52385 0.951854ZM10.1538 12.5276H1.69231V6.19817L5.92308 2.51396L10.1538 6.19817V12.5276Z" fill="url(#paint0_linear_2197_6076)"/>
<path d="M10.755 0.951854C10.425 0.664486 9.89195 0.664486 9.56195 0.951854C9.23195 1.23922 9.23195 1.70343 9.56195 1.9908L13.5389 5.46133V13.2645C13.5389 13.6697 13.9196 14.0013 14.385 14.0013C14.8504 14.0013 15.2312 13.6697 15.2312 13.2645V5.15922C15.2312 4.96028 15.1381 4.77606 14.9858 4.63606L10.755 0.951854Z" fill="url(#paint1_linear_2197_6076)"/>
<path d="M18.3701 3.89922L14.9855 0.951854C14.6555 0.664486 14.1224 0.664486 13.7924 0.951854C13.4624 1.23922 13.4624 1.70343 13.7924 1.9908L16.9232 4.72449V13.2645C16.9232 13.6697 17.304 14.0013 17.7693 14.0013C18.2347 14.0013 18.6155 13.6697 18.6155 13.2645V4.42238C18.6155 4.22343 18.5224 4.03922 18.3701 3.89922Z" fill="url(#paint2_linear_2197_6076)"/>
<path d="M21.7549 3.16094L18.3703 0.213573C18.0403 -0.0737952 17.5072 -0.0737952 17.1772 0.213573C16.8472 0.500942 16.8472 0.965152 17.1772 1.25252L20.308 3.9862V13.263C20.308 13.6683 20.6887 13.9999 21.1541 13.9999C21.6195 13.9999 22.0003 13.6683 22.0003 13.263V3.6841C22.0003 3.48515 21.9072 3.30094 21.7549 3.16094Z" fill="url(#paint3_linear_2197_6076)"/>
</g>
<defs>
<linearGradient id="paint0_linear_2197_6076" x1="5.92308" y1="0.736328" x2="5.92308" y2="14.0013" gradientUnits="userSpaceOnUse">
<stop stop-color="#A2A7AF"/>
<stop offset="1" stop-color="#494949"/>
</linearGradient>
<linearGradient id="paint1_linear_2197_6076" x1="12.2728" y1="0.736328" x2="12.2728" y2="14.0013" gradientUnits="userSpaceOnUse">
<stop stop-color="#A2A7AF"/>
<stop offset="1" stop-color="#494949"/>
</linearGradient>
<linearGradient id="paint2_linear_2197_6076" x1="16.0802" y1="0.736328" x2="16.0802" y2="14.0013" gradientUnits="userSpaceOnUse">
<stop stop-color="#A2A7AF"/>
<stop offset="1" stop-color="#494949"/>
</linearGradient>
<linearGradient id="paint3_linear_2197_6076" x1="19.465" y1="-0.00195313" x2="19.465" y2="13.9999" gradientUnits="userSpaceOnUse">
<stop stop-color="#A2A7AF"/>
<stop offset="1" stop-color="#494949"/>
</linearGradient>
<clipPath id="clip0_2197_6076">
<rect width="22" height="14" fill="white"/>
</clipPath>
</defs>
</svg>
