<svg width="22" height="18" viewBox="0 0 22 18" fill="none" xmlns="http://www.w3.org/2000/svg">
<path d="M21.71 4.32973L16.71 0.239291C16.32 -0.0797636 15.69 -0.0797636 15.3 0.239291L11 3.75707L6.71 0.24748C6.32 -0.0715748 5.69 -0.0715748 5.3 0.24748L0.300003 4.33792C0.110003 4.48518 0 4.6897 0 4.91058V17.1819C0 17.6319 0.45 18 1 18C7.99 18 14.01 18 21 18C21.55 18 22 17.6319 22 17.1819V4.91058C22 4.6897 21.89 4.48517 21.71 4.32973ZM2 5.246L6 1.97365L10 5.246V16.3638H2V5.246ZM20 16.3638H12V5.246L16 1.97365L20 5.246V16.3638Z" fill="url(#paint0_linear_2197_6071)"/>
<defs>
<linearGradient id="paint0_linear_2197_6071" x1="11" y1="0" x2="11" y2="18" gradientUnits="userSpaceOnUse">
<stop stop-color="#A2A7AF"/>
<stop offset="1" stop-color="#494949"/>
</linearGradient>
</defs>
</svg>
