<svg width="22" height="14" viewBox="0 0 22 14" fill="none" xmlns="http://www.w3.org/2000/svg">
<path d="M8.07204 0.292448C7.66333 -0.0974826 7.0031 -0.0974826 6.59439 0.292448C6.30096 0.572398 0.00261994 6.58133 0.306533 6.29138C-0.102178 6.68131 -0.102178 7.31119 0.306533 7.70112C0.715244 8.09105 1.37547 8.09105 1.78418 7.70112L2.08809 7.41118V13.0002C2.08809 13.5501 2.55968 14 3.13607 14H11.5199C12.0963 14 12.5679 13.5501 12.5679 13.0002V7.41118L12.8718 7.70112C13.2805 8.09105 13.9407 8.09105 14.3494 7.70112C14.7581 7.31119 14.7581 6.68131 14.3494 6.29138C14.2341 6.1714 7.96724 0.192466 8.07204 0.292448ZM10.4719 12.0004H4.18405V5.41153L7.32797 2.41207L10.4719 5.41153V12.0004Z" fill="url(#paint0_linear_2197_6064)"/>
<path d="M21.9993 5.42857C21.9993 3.53429 20.3585 2 18.3327 2C16.3068 2 14.666 3.53429 14.666 5.42857C14.666 7.02286 15.8393 8.35143 17.416 8.73714V13.1429C17.416 13.6143 17.8285 14 18.3327 14C18.8368 14 19.2493 13.6143 19.2493 13.1429V8.73714C20.826 8.35143 21.9993 7.02286 21.9993 5.42857ZM19.2493 6.90286V6.28571C19.2493 5.81429 18.8368 5.42857 18.3327 5.42857C17.8285 5.42857 17.416 5.81429 17.416 6.28571V6.90286C16.8752 6.60286 16.4993 6.06286 16.4993 5.42857C16.4993 4.48571 17.3243 3.71429 18.3327 3.71429C19.341 3.71429 20.166 4.48571 20.166 5.42857C20.166 6.06286 19.7902 6.60286 19.2493 6.90286Z" fill="url(#paint1_linear_2197_6064)"/>
<defs>
<linearGradient id="paint0_linear_2197_6064" x1="7.32797" y1="0" x2="7.32797" y2="14" gradientUnits="userSpaceOnUse">
<stop stop-color="#A2A7AF"/>
<stop offset="1" stop-color="#494949"/>
</linearGradient>
<linearGradient id="paint1_linear_2197_6064" x1="18.3327" y1="2" x2="18.3327" y2="14" gradientUnits="userSpaceOnUse">
<stop stop-color="#A2A7AF"/>
<stop offset="1" stop-color="#494949"/>
</linearGradient>
</defs>
</svg>
