<svg width="26" height="26" viewBox="0 0 26 26" fill="none" xmlns="http://www.w3.org/2000/svg">
<g filter="url(#filter0_d_2749_12431)">
<path d="M19.3 12.3H17.081L18.859 10.522C18.9239 10.4572 18.9754 10.3803 19.0105 10.2956C19.0456 10.211 19.0637 10.1202 19.0637 10.0285C19.0637 9.93682 19.0456 9.84604 19.0105 9.76136C18.9754 9.67668 18.9239 9.59976 18.859 9.535C18.586 9.262 18.138 9.262 17.865 9.535L15.1 12.3H13.7V10.9L16.465 8.135C16.738 7.862 16.738 7.414 16.465 7.141C16.4002 7.07611 16.3233 7.02462 16.2386 6.9895C16.154 6.95437 16.0632 6.93629 15.9715 6.93629C15.8798 6.93629 15.789 6.95437 15.7044 6.9895C15.6197 7.02462 15.5428 7.07611 15.478 7.141L13.7 8.919V6.7C13.7 6.315 13.385 6 13 6C12.615 6 12.3 6.315 12.3 6.7V8.919L10.522 7.141C10.4572 7.07611 10.3803 7.02462 10.2956 6.9895C10.211 6.95437 10.1202 6.93629 10.0285 6.93629C9.93682 6.93629 9.84604 6.95437 9.76136 6.9895C9.67668 7.02462 9.59976 7.07611 9.535 7.141C9.262 7.414 9.262 7.862 9.535 8.135L12.3 10.9V12.3H10.9L8.135 9.535C7.862 9.262 7.414 9.262 7.141 9.535C7.07611 9.59976 7.02462 9.67668 6.9895 9.76136C6.95437 9.84604 6.93629 9.93682 6.93629 10.0285C6.93629 10.1202 6.95437 10.211 6.9895 10.2956C7.02462 10.3803 7.07611 10.4572 7.141 10.522L8.919 12.3H6.7C6.315 12.3 6 12.615 6 13C6 13.385 6.315 13.7 6.7 13.7H8.919L7.141 15.478C7.07611 15.5428 7.02462 15.6197 6.9895 15.7044C6.95437 15.789 6.93629 15.8798 6.93629 15.9715C6.93629 16.0632 6.95437 16.154 6.9895 16.2386C7.02462 16.3233 7.07611 16.4002 7.141 16.465C7.414 16.738 7.862 16.738 8.135 16.465L10.9 13.7H12.3V15.1L9.535 17.865C9.262 18.138 9.262 18.586 9.535 18.859C9.808 19.132 10.249 19.132 10.522 18.859L12.3 17.081V19.3C12.3 19.685 12.615 20 13 20C13.385 20 13.7 19.685 13.7 19.3V17.081L15.478 18.859C15.751 19.132 16.192 19.132 16.465 18.859C16.738 18.586 16.738 18.138 16.465 17.865L13.7 15.1V13.7H15.1L17.865 16.465C18.138 16.738 18.586 16.738 18.859 16.465C18.9239 16.4002 18.9754 16.3233 19.0105 16.2386C19.0456 16.154 19.0637 16.0632 19.0637 15.9715C19.0637 15.8798 19.0456 15.789 19.0105 15.7044C18.9754 15.6197 18.9239 15.5428 18.859 15.478L17.081 13.7H19.3C19.685 13.7 20 13.385 20 13C20 12.615 19.685 12.3 19.3 12.3Z" fill="#6666FF"/>
</g>
<defs>
<filter id="filter0_d_2749_12431" x="-5" y="-5" width="36" height="36" filterUnits="userSpaceOnUse" color-interpolation-filters="sRGB">
<feFlood flood-opacity="0" result="BackgroundImageFix"/>
<feColorMatrix in="SourceAlpha" type="matrix" values="0 0 0 0 0 0 0 0 0 0 0 0 0 0 0 0 0 0 127 0" result="hardAlpha"/>
<feOffset/>
<feGaussianBlur stdDeviation="3"/>
<feComposite in2="hardAlpha" operator="out"/>
<feColorMatrix type="matrix" values="0 0 0 0 0 0 0 0 0 0 0 0 0 0 0 0 0 0 0.05 0"/>
<feBlend mode="normal" in2="BackgroundImageFix" result="effect1_dropShadow_2749_12431"/>
<feBlend mode="normal" in="SourceGraphic" in2="effect1_dropShadow_2749_12431" result="shape"/>
</filter>
</defs>
</svg>
