<svg width="14" height="11" viewBox="0 0 14 11" fill="none" xmlns="http://www.w3.org/2000/svg">
<path d="M1.14922 8.97645H12.8495V10.4024C12.8495 10.5733 12.9041 10.7158 13.0133 10.83C13.1225 10.9433 13.2594 11 13.4241 11C13.5887 11 13.7261 10.9433 13.8362 10.83C13.9463 10.7167 14.0009 10.5742 14 10.4024V6.17991C14 5.57465 13.8167 5.06381 13.4501 4.64741C13.0835 4.23101 12.6168 3.99448 12.0499 3.93782V2.17869C12.0499 1.55813 11.8493 1.03966 11.448 0.623255C11.0468 0.206854 10.5471 -0.000896446 9.94911 2.9074e-06H4.04958C3.45157 2.9074e-06 2.95193 0.207753 2.55065 0.623255C2.14938 1.03876 1.94917 1.55723 1.95004 2.17869V3.93782C1.3815 3.99538 0.914352 4.23191 0.548611 4.64741C0.18287 5.06291 0 5.57375 0 6.17991V10.4024C0 10.5733 0.0541678 10.7158 0.162503 10.83C0.271706 10.9433 0.409075 11 0.574612 11C0.739282 11 0.876218 10.9433 0.98542 10.83C1.09462 10.7167 1.14922 10.5742 1.14922 10.4024V8.97645ZM1.14922 7.78256V6.17991C1.14922 5.86514 1.24889 5.60388 1.44823 5.39613C1.64757 5.18838 1.90021 5.0845 2.20615 5.0845H11.7964C12.0998 5.0845 12.3511 5.18792 12.5505 5.39478C12.7498 5.60163 12.8499 5.86334 12.8508 6.17991V7.78256H1.14922ZM3.09926 3.89196V2.0222C3.09926 1.77937 3.17423 1.58062 3.32417 1.42593C3.47411 1.27034 3.66608 1.19255 3.90008 1.19255H10.0999C10.333 1.19255 10.5246 1.27034 10.6745 1.42593C10.8245 1.58152 10.8994 1.78027 10.8994 2.0222V3.89061L3.09926 3.89196Z" fill="#0512F5"/>
</svg>
