<svg width="24" height="28" viewBox="0 0 24 28" fill="none" xmlns="http://www.w3.org/2000/svg">
<g filter="url(#filter0_d_2749_12487)">
<path fill-rule="evenodd" clip-rule="evenodd" d="M7 9C7 7.34315 8.34315 6 10 6H14C15.6569 6 17 7.34315 17 9V19C17 20.6569 15.6569 22 14 22H10C8.34315 22 7 20.6569 7 19V9ZM9.63086 13.2731H14.3677C14.4157 13.2729 14.4627 13.2583 14.5037 13.2308C14.5447 13.2033 14.5781 13.1639 14.6004 13.117C14.6227 13.07 14.6329 13.0173 14.6301 12.9643C14.6273 12.9114 14.6114 12.8604 14.5843 12.8166L12.2159 9.03483C12.1177 8.87803 11.8814 8.87803 11.783 9.03483L9.41455 12.8166C9.38713 12.8603 9.37106 12.9114 9.36806 12.9644C9.36507 13.0174 9.37528 13.0703 9.39758 13.1173C9.41987 13.1644 9.45341 13.2038 9.49454 13.2312C9.53567 13.2587 9.58282 13.2732 9.63086 13.2731ZM9.6323 14.7269H14.3691C14.4172 14.7268 14.4643 14.7412 14.5055 14.7687C14.5466 14.7962 14.5801 14.8356 14.6024 14.8826C14.6247 14.9297 14.6349 14.9826 14.6319 15.0356C14.6289 15.0886 14.6129 15.1397 14.5855 15.1833L12.217 18.9651C12.1186 19.1219 11.8823 19.1219 11.7841 18.9651L9.41572 15.1833C9.38858 15.1396 9.37274 15.0885 9.3699 15.0356C9.36706 14.9827 9.37734 14.9299 9.39961 14.8829C9.42189 14.836 9.45533 14.7966 9.49633 14.7691C9.53733 14.7416 9.58434 14.727 9.6323 14.7269Z" fill="#6666FF"/>
</g>
<defs>
<filter id="filter0_d_2749_12487" x="-6" y="-4" width="36" height="36" filterUnits="userSpaceOnUse" color-interpolation-filters="sRGB">
<feFlood flood-opacity="0" result="BackgroundImageFix"/>
<feColorMatrix in="SourceAlpha" type="matrix" values="0 0 0 0 0 0 0 0 0 0 0 0 0 0 0 0 0 0 127 0" result="hardAlpha"/>
<feOffset/>
<feGaussianBlur stdDeviation="3"/>
<feComposite in2="hardAlpha" operator="out"/>
<feColorMatrix type="matrix" values="0 0 0 0 0 0 0 0 0 0 0 0 0 0 0 0 0 0 0.05 0"/>
<feBlend mode="normal" in2="BackgroundImageFix" result="effect1_dropShadow_2749_12487"/>
<feBlend mode="normal" in="SourceGraphic" in2="effect1_dropShadow_2749_12487" result="shape"/>
</filter>
</defs>
</svg>
