<svg width="27" height="28" viewBox="0 0 27 28" fill="none" xmlns="http://www.w3.org/2000/svg">
<g filter="url(#filter0_d_2749_12448)">
<path d="M10.8025 16.7247C8.91638 16.7637 8.93069 11.3578 10.8241 11.3184C11.9803 11.2944 12.0314 9.7734 12.184 8.78936C12.4693 6.94378 9.72992 6.73346 8.94642 7.72796C6.47672 10.866 6.16478 17.6596 9.12508 20.5159C10.0508 21.4095 12.5612 20.7862 12.1596 19.007C11.9594 18.1176 11.8532 16.7028 10.8029 16.7243" stroke="#6666FF" stroke-width="1.5" stroke-linecap="round" stroke-linejoin="round"/>
<mask id="path-3-inside-1_2749_12448" fill="white">
<path d="M15.3125 10.8404L15.3125 11.9039C15.3125 12.1141 15.4597 12.2848 15.6412 12.2848L16.3486 12.2848C16.4359 12.2848 16.5195 12.2447 16.5812 12.1732C16.6428 12.1018 16.6775 12.0049 16.6775 11.9039L16.6775 10.8404C16.6775 10.6302 16.5305 10.4593 16.3486 10.4593L15.6412 10.4593C15.4597 10.4593 15.3125 10.6302 15.3125 10.8404Z"/>
<path d="M15.3125 8.25024L15.3125 9.31328C15.3125 9.41427 15.3471 9.51113 15.4087 9.58256C15.4704 9.65399 15.554 9.69414 15.6412 9.6942L16.3486 9.6942C16.4359 9.6942 16.5195 9.65407 16.5812 9.58263C16.6428 9.51119 16.6775 9.41431 16.6775 9.31328L16.6775 8.25024C16.6775 8.03958 16.5305 7.86932 16.3486 7.86932L15.6412 7.86932C15.4597 7.86932 15.3125 8.03958 15.3125 8.25024Z"/>
<path d="M15.3125 13.4835L15.3125 14.5472C15.3125 14.5972 15.321 14.6467 15.3375 14.6929C15.354 14.7391 15.3782 14.7811 15.4087 14.8164C15.4392 14.8518 15.4755 14.8798 15.5154 14.8989C15.5553 14.918 15.598 14.9278 15.6412 14.9277L16.3486 14.9277C16.4358 14.9277 16.5194 14.8876 16.581 14.8163C16.6427 14.745 16.6774 14.6482 16.6775 14.5472L16.6775 13.4835C16.6775 13.2733 16.5305 13.1028 16.3486 13.1028L15.6412 13.1028C15.4597 13.1028 15.3125 13.2733 15.3125 13.4835Z"/>
<path d="M15.3125 18.7179L15.3125 19.7812C15.3125 19.8822 15.3472 19.979 15.4088 20.0504C15.4704 20.1218 15.554 20.162 15.6412 20.1621L16.3486 20.1621C16.4359 20.1621 16.5195 20.122 16.5812 20.0505C16.6428 19.9791 16.6775 19.8822 16.6775 19.7812L16.6775 18.7179C16.6775 18.5077 16.5305 18.3372 16.3486 18.3372L15.6412 18.3372C15.4597 18.3372 15.3125 18.5077 15.3125 18.7179Z"/>
<path d="M15.3125 16.0683L15.3125 17.1318C15.3125 17.342 15.4597 17.5125 15.6412 17.5125L16.3486 17.5125C16.3918 17.5126 16.4346 17.5028 16.4745 17.4837C16.5144 17.4646 16.5507 17.4366 16.5813 17.4012C16.6118 17.3658 16.636 17.3238 16.6525 17.2776C16.6691 17.2314 16.6775 17.1818 16.6775 17.1318L16.6775 16.0683C16.6775 15.8581 16.5305 15.6874 16.3486 15.6874L15.6412 15.6874C15.4597 15.6874 15.3125 15.8581 15.3125 16.0683Z"/>
<path d="M19.5139 10.811L19.5139 11.8745C19.5141 11.9755 19.5488 12.0723 19.6105 12.1437C19.6722 12.215 19.7558 12.2552 19.843 12.2552L20.5503 12.2552C20.6375 12.2552 20.7211 12.2151 20.7828 12.1437C20.8445 12.0724 20.8792 11.9755 20.8793 11.8745L20.8793 10.811C20.8793 10.6008 20.7317 10.4301 20.5503 10.4301L19.843 10.4301C19.6611 10.4301 19.5139 10.6008 19.5139 10.811Z"/>
<path d="M19.5139 8.22042L19.5139 9.28346C19.5139 9.49413 19.6615 9.66438 19.843 9.66438L20.5503 9.66438C20.5935 9.66441 20.6362 9.65458 20.6762 9.63545C20.7161 9.61632 20.7524 9.58827 20.7829 9.55289C20.8135 9.51752 20.8377 9.47552 20.8542 9.42928C20.8708 9.38306 20.8793 9.3335 20.8793 9.28346L20.8793 8.22042C20.8793 8.00976 20.7317 7.8395 20.5503 7.8395L19.843 7.8395C19.6611 7.8395 19.5139 8.00976 19.5139 8.22042Z"/>
<path d="M19.5139 13.4542L19.5139 14.5174C19.5139 14.5674 19.5224 14.6172 19.5389 14.6634C19.5555 14.7096 19.5797 14.7516 19.6103 14.787C19.6409 14.8223 19.6771 14.8503 19.7171 14.8694C19.757 14.8885 19.7998 14.8982 19.843 14.8981L20.5503 14.8981C20.5935 14.8982 20.6362 14.8885 20.6762 14.8694C20.7161 14.8503 20.7524 14.8223 20.7829 14.787C20.8135 14.7516 20.8377 14.7096 20.8543 14.6634C20.8708 14.6172 20.8793 14.5677 20.8793 14.5176L20.8793 13.4542C20.8793 13.2439 20.7317 13.0735 20.5503 13.0735L19.843 13.0735C19.6611 13.0735 19.5139 13.2439 19.5139 13.4542Z"/>
<path d="M19.5139 18.6883L19.5139 19.7516C19.5139 19.9618 19.6615 20.1323 19.843 20.1323L20.5503 20.1323C20.6375 20.1323 20.7211 20.0922 20.7828 20.0208C20.8445 19.9494 20.8792 19.8526 20.8793 19.7516L20.8793 18.6883C20.8793 18.4781 20.7317 18.3074 20.5503 18.3074L19.843 18.3074C19.6611 18.3074 19.5139 18.4781 19.5139 18.6883Z"/>
<path d="M19.5139 16.0389L19.5139 17.1022C19.514 17.2032 19.5487 17.3001 19.6104 17.3715C19.6721 17.4429 19.7558 17.4831 19.843 17.4831L20.5503 17.4831C20.6375 17.4831 20.7212 17.443 20.7829 17.3716C20.8446 17.3001 20.8792 17.2032 20.8793 17.1022L20.8793 16.0389C20.8793 15.8285 20.7317 15.658 20.5503 15.658L19.843 15.658C19.6611 15.658 19.5139 15.8285 19.5139 16.0389Z"/>
<path d="M17.4316 9.54058L17.4316 10.604C17.4316 10.705 17.4662 10.8018 17.5278 10.8732C17.5894 10.9447 17.6729 10.9849 17.7601 10.985L18.4675 10.985C18.5107 10.985 18.5535 10.9752 18.5934 10.9561C18.6333 10.937 18.6696 10.9089 18.7001 10.8735C18.7306 10.8381 18.7548 10.7961 18.7713 10.7499C18.7878 10.7036 18.7963 10.6541 18.7962 10.604L18.7962 9.54058C18.7962 9.33035 18.6494 9.15966 18.4675 9.15966L17.7601 9.15966C17.5786 9.15966 17.4316 9.33035 17.4316 9.54058Z"/>
<path d="M17.4316 12.1837L17.4316 13.2474C17.4316 13.2974 17.44 13.3469 17.4565 13.393C17.473 13.4392 17.4972 13.4812 17.5277 13.5165C17.5582 13.5518 17.5945 13.5799 17.6343 13.599C17.6742 13.6181 17.7169 13.6279 17.7601 13.6279L18.4675 13.6279C18.5107 13.6279 18.5534 13.6181 18.5933 13.599C18.6332 13.5799 18.6695 13.5519 18.7 13.5166C18.7305 13.4812 18.7547 13.4393 18.7712 13.3931C18.7877 13.3469 18.7962 13.2974 18.7962 13.2474L18.7962 12.1837C18.7962 12.1337 18.7878 12.0842 18.7713 12.0379C18.7548 11.9917 18.7306 11.9497 18.7 11.9144C18.6695 11.879 18.6333 11.851 18.5934 11.8319C18.5535 11.8127 18.5107 11.8029 18.4675 11.803L17.7601 11.803C17.5786 11.803 17.4316 11.9735 17.4316 12.1837Z"/>
<path d="M17.4316 17.4179L17.4316 18.4811C17.4316 18.6914 17.5786 18.862 17.7601 18.862L18.4675 18.862C18.5107 18.8621 18.5535 18.8523 18.5934 18.8332C18.6333 18.814 18.6696 18.786 18.7001 18.7506C18.7306 18.7152 18.7548 18.6732 18.7713 18.6269C18.7878 18.5807 18.7963 18.5312 18.7962 18.4811L18.7962 17.4179C18.7962 17.3679 18.7878 17.3183 18.7713 17.2721C18.7548 17.2259 18.7306 17.1839 18.7 17.1485C18.6695 17.1132 18.6333 17.0851 18.5934 17.066C18.5535 17.0469 18.5107 17.0371 18.4675 17.0372L17.7601 17.0372C17.5786 17.0372 17.4316 17.2076 17.4316 17.4179Z"/>
<path d="M17.4316 14.7683L17.4316 15.8317C17.4315 15.8817 17.44 15.9312 17.4565 15.9774C17.473 16.0236 17.4972 16.0656 17.5277 16.101C17.5582 16.1363 17.5944 16.1644 17.6343 16.1835C17.6742 16.2026 17.7169 16.2125 17.7601 16.2124L18.4675 16.2124C18.5107 16.2125 18.5535 16.2027 18.5934 16.1836C18.6333 16.1645 18.6695 16.1364 18.7 16.1011C18.7306 16.0657 18.7548 16.0237 18.7713 15.9775C18.7878 15.9313 18.7962 15.8817 18.7962 15.8317L18.7962 14.7683C18.7962 14.558 18.6494 14.3873 18.4675 14.3873L17.7601 14.3873C17.5786 14.3873 17.4316 14.558 17.4316 14.7683Z"/>
</mask>
<path d="M15.3125 10.8404L15.3125 11.9039C15.3125 12.1141 15.4597 12.2848 15.6412 12.2848L16.3486 12.2848C16.4359 12.2848 16.5195 12.2447 16.5812 12.1732C16.6428 12.1018 16.6775 12.0049 16.6775 11.9039L16.6775 10.8404C16.6775 10.6302 16.5305 10.4593 16.3486 10.4593L15.6412 10.4593C15.4597 10.4593 15.3125 10.6302 15.3125 10.8404Z" fill="#6666FF"/>
<path d="M15.3125 8.25024L15.3125 9.31328C15.3125 9.41427 15.3471 9.51113 15.4087 9.58256C15.4704 9.65399 15.554 9.69414 15.6412 9.6942L16.3486 9.6942C16.4359 9.6942 16.5195 9.65407 16.5812 9.58263C16.6428 9.51119 16.6775 9.41431 16.6775 9.31328L16.6775 8.25024C16.6775 8.03958 16.5305 7.86932 16.3486 7.86932L15.6412 7.86932C15.4597 7.86932 15.3125 8.03958 15.3125 8.25024Z" fill="#6666FF"/>
<path d="M15.3125 13.4835L15.3125 14.5472C15.3125 14.5972 15.321 14.6467 15.3375 14.6929C15.354 14.7391 15.3782 14.7811 15.4087 14.8164C15.4392 14.8518 15.4755 14.8798 15.5154 14.8989C15.5553 14.918 15.598 14.9278 15.6412 14.9277L16.3486 14.9277C16.4358 14.9277 16.5194 14.8876 16.581 14.8163C16.6427 14.745 16.6774 14.6482 16.6775 14.5472L16.6775 13.4835C16.6775 13.2733 16.5305 13.1028 16.3486 13.1028L15.6412 13.1028C15.4597 13.1028 15.3125 13.2733 15.3125 13.4835Z" fill="#6666FF"/>
<path d="M15.3125 18.7179L15.3125 19.7812C15.3125 19.8822 15.3472 19.979 15.4088 20.0504C15.4704 20.1218 15.554 20.162 15.6412 20.1621L16.3486 20.1621C16.4359 20.1621 16.5195 20.122 16.5812 20.0505C16.6428 19.9791 16.6775 19.8822 16.6775 19.7812L16.6775 18.7179C16.6775 18.5077 16.5305 18.3372 16.3486 18.3372L15.6412 18.3372C15.4597 18.3372 15.3125 18.5077 15.3125 18.7179Z" fill="#6666FF"/>
<path d="M15.3125 16.0683L15.3125 17.1318C15.3125 17.342 15.4597 17.5125 15.6412 17.5125L16.3486 17.5125C16.3918 17.5126 16.4346 17.5028 16.4745 17.4837C16.5144 17.4646 16.5507 17.4366 16.5813 17.4012C16.6118 17.3658 16.636 17.3238 16.6525 17.2776C16.6691 17.2314 16.6775 17.1818 16.6775 17.1318L16.6775 16.0683C16.6775 15.8581 16.5305 15.6874 16.3486 15.6874L15.6412 15.6874C15.4597 15.6874 15.3125 15.8581 15.3125 16.0683Z" fill="#6666FF"/>
<path d="M19.5139 10.811L19.5139 11.8745C19.5141 11.9755 19.5488 12.0723 19.6105 12.1437C19.6722 12.215 19.7558 12.2552 19.843 12.2552L20.5503 12.2552C20.6375 12.2552 20.7211 12.2151 20.7828 12.1437C20.8445 12.0724 20.8792 11.9755 20.8793 11.8745L20.8793 10.811C20.8793 10.6008 20.7317 10.4301 20.5503 10.4301L19.843 10.4301C19.6611 10.4301 19.5139 10.6008 19.5139 10.811Z" fill="#6666FF"/>
<path d="M19.5139 8.22042L19.5139 9.28346C19.5139 9.49413 19.6615 9.66438 19.843 9.66438L20.5503 9.66438C20.5935 9.66441 20.6362 9.65458 20.6762 9.63545C20.7161 9.61632 20.7524 9.58827 20.7829 9.55289C20.8135 9.51752 20.8377 9.47552 20.8542 9.42928C20.8708 9.38306 20.8793 9.3335 20.8793 9.28346L20.8793 8.22042C20.8793 8.00976 20.7317 7.8395 20.5503 7.8395L19.843 7.8395C19.6611 7.8395 19.5139 8.00976 19.5139 8.22042Z" fill="#6666FF"/>
<path d="M19.5139 13.4542L19.5139 14.5174C19.5139 14.5674 19.5224 14.6172 19.5389 14.6634C19.5555 14.7096 19.5797 14.7516 19.6103 14.787C19.6409 14.8223 19.6771 14.8503 19.7171 14.8694C19.757 14.8885 19.7998 14.8982 19.843 14.8981L20.5503 14.8981C20.5935 14.8982 20.6362 14.8885 20.6762 14.8694C20.7161 14.8503 20.7524 14.8223 20.7829 14.787C20.8135 14.7516 20.8377 14.7096 20.8543 14.6634C20.8708 14.6172 20.8793 14.5677 20.8793 14.5176L20.8793 13.4542C20.8793 13.2439 20.7317 13.0735 20.5503 13.0735L19.843 13.0735C19.6611 13.0735 19.5139 13.2439 19.5139 13.4542Z" fill="#6666FF"/>
<path d="M19.5139 18.6883L19.5139 19.7516C19.5139 19.9618 19.6615 20.1323 19.843 20.1323L20.5503 20.1323C20.6375 20.1323 20.7211 20.0922 20.7828 20.0208C20.8445 19.9494 20.8792 19.8526 20.8793 19.7516L20.8793 18.6883C20.8793 18.4781 20.7317 18.3074 20.5503 18.3074L19.843 18.3074C19.6611 18.3074 19.5139 18.4781 19.5139 18.6883Z" fill="#6666FF"/>
<path d="M19.5139 16.0389L19.5139 17.1022C19.514 17.2032 19.5487 17.3001 19.6104 17.3715C19.6721 17.4429 19.7558 17.4831 19.843 17.4831L20.5503 17.4831C20.6375 17.4831 20.7212 17.443 20.7829 17.3716C20.8446 17.3001 20.8792 17.2032 20.8793 17.1022L20.8793 16.0389C20.8793 15.8285 20.7317 15.658 20.5503 15.658L19.843 15.658C19.6611 15.658 19.5139 15.8285 19.5139 16.0389Z" fill="#6666FF"/>
<path d="M17.4316 9.54058L17.4316 10.604C17.4316 10.705 17.4662 10.8018 17.5278 10.8732C17.5894 10.9447 17.6729 10.9849 17.7601 10.985L18.4675 10.985C18.5107 10.985 18.5535 10.9752 18.5934 10.9561C18.6333 10.937 18.6696 10.9089 18.7001 10.8735C18.7306 10.8381 18.7548 10.7961 18.7713 10.7499C18.7878 10.7036 18.7963 10.6541 18.7962 10.604L18.7962 9.54058C18.7962 9.33035 18.6494 9.15966 18.4675 9.15966L17.7601 9.15966C17.5786 9.15966 17.4316 9.33035 17.4316 9.54058Z" fill="#6666FF"/>
<path d="M17.4316 12.1837L17.4316 13.2474C17.4316 13.2974 17.44 13.3469 17.4565 13.393C17.473 13.4392 17.4972 13.4812 17.5277 13.5165C17.5582 13.5518 17.5945 13.5799 17.6343 13.599C17.6742 13.6181 17.7169 13.6279 17.7601 13.6279L18.4675 13.6279C18.5107 13.6279 18.5534 13.6181 18.5933 13.599C18.6332 13.5799 18.6695 13.5519 18.7 13.5166C18.7305 13.4812 18.7547 13.4393 18.7712 13.3931C18.7877 13.3469 18.7962 13.2974 18.7962 13.2474L18.7962 12.1837C18.7962 12.1337 18.7878 12.0842 18.7713 12.0379C18.7548 11.9917 18.7306 11.9497 18.7 11.9144C18.6695 11.879 18.6333 11.851 18.5934 11.8319C18.5535 11.8127 18.5107 11.8029 18.4675 11.803L17.7601 11.803C17.5786 11.803 17.4316 11.9735 17.4316 12.1837Z" fill="#6666FF"/>
<path d="M17.4316 17.4179L17.4316 18.4811C17.4316 18.6914 17.5786 18.862 17.7601 18.862L18.4675 18.862C18.5107 18.8621 18.5535 18.8523 18.5934 18.8332C18.6333 18.814 18.6696 18.786 18.7001 18.7506C18.7306 18.7152 18.7548 18.6732 18.7713 18.6269C18.7878 18.5807 18.7963 18.5312 18.7962 18.4811L18.7962 17.4179C18.7962 17.3679 18.7878 17.3183 18.7713 17.2721C18.7548 17.2259 18.7306 17.1839 18.7 17.1485C18.6695 17.1132 18.6333 17.0851 18.5934 17.066C18.5535 17.0469 18.5107 17.0371 18.4675 17.0372L17.7601 17.0372C17.5786 17.0372 17.4316 17.2076 17.4316 17.4179Z" fill="#6666FF"/>
<path d="M17.4316 14.7683L17.4316 15.8317C17.4315 15.8817 17.44 15.9312 17.4565 15.9774C17.473 16.0236 17.4972 16.0656 17.5277 16.101C17.5582 16.1363 17.5944 16.1644 17.6343 16.1835C17.6742 16.2026 17.7169 16.2125 17.7601 16.2124L18.4675 16.2124C18.5107 16.2125 18.5535 16.2027 18.5934 16.1836C18.6333 16.1645 18.6695 16.1364 18.7 16.1011C18.7306 16.0657 18.7548 16.0237 18.7713 15.9775C18.7878 15.9313 18.7962 15.8817 18.7962 15.8317L18.7962 14.7683C18.7962 14.558 18.6494 14.3873 18.4675 14.3873L17.7601 14.3873C17.5786 14.3873 17.4316 14.558 17.4316 14.7683Z" fill="#6666FF"/>
<path d="M15.3125 10.8404L15.3125 11.9039C15.3125 12.1141 15.4597 12.2848 15.6412 12.2848L16.3486 12.2848C16.4359 12.2848 16.5195 12.2447 16.5812 12.1732C16.6428 12.1018 16.6775 12.0049 16.6775 11.9039L16.6775 10.8404C16.6775 10.6302 16.5305 10.4593 16.3486 10.4593L15.6412 10.4593C15.4597 10.4593 15.3125 10.6302 15.3125 10.8404Z" stroke="#6666FF" stroke-width="2" mask="url(#path-3-inside-1_2749_12448)"/>
<path d="M15.3125 8.25024L15.3125 9.31328C15.3125 9.41427 15.3471 9.51113 15.4087 9.58256C15.4704 9.65399 15.554 9.69414 15.6412 9.6942L16.3486 9.6942C16.4359 9.6942 16.5195 9.65407 16.5812 9.58263C16.6428 9.51119 16.6775 9.41431 16.6775 9.31328L16.6775 8.25024C16.6775 8.03958 16.5305 7.86932 16.3486 7.86932L15.6412 7.86932C15.4597 7.86932 15.3125 8.03958 15.3125 8.25024Z" stroke="#6666FF" stroke-width="2" mask="url(#path-3-inside-1_2749_12448)"/>
<path d="M15.3125 13.4835L15.3125 14.5472C15.3125 14.5972 15.321 14.6467 15.3375 14.6929C15.354 14.7391 15.3782 14.7811 15.4087 14.8164C15.4392 14.8518 15.4755 14.8798 15.5154 14.8989C15.5553 14.918 15.598 14.9278 15.6412 14.9277L16.3486 14.9277C16.4358 14.9277 16.5194 14.8876 16.581 14.8163C16.6427 14.745 16.6774 14.6482 16.6775 14.5472L16.6775 13.4835C16.6775 13.2733 16.5305 13.1028 16.3486 13.1028L15.6412 13.1028C15.4597 13.1028 15.3125 13.2733 15.3125 13.4835Z" stroke="#6666FF" stroke-width="2" mask="url(#path-3-inside-1_2749_12448)"/>
<path d="M15.3125 18.7179L15.3125 19.7812C15.3125 19.8822 15.3472 19.979 15.4088 20.0504C15.4704 20.1218 15.554 20.162 15.6412 20.1621L16.3486 20.1621C16.4359 20.1621 16.5195 20.122 16.5812 20.0505C16.6428 19.9791 16.6775 19.8822 16.6775 19.7812L16.6775 18.7179C16.6775 18.5077 16.5305 18.3372 16.3486 18.3372L15.6412 18.3372C15.4597 18.3372 15.3125 18.5077 15.3125 18.7179Z" stroke="#6666FF" stroke-width="2" mask="url(#path-3-inside-1_2749_12448)"/>
<path d="M15.3125 16.0683L15.3125 17.1318C15.3125 17.342 15.4597 17.5125 15.6412 17.5125L16.3486 17.5125C16.3918 17.5126 16.4346 17.5028 16.4745 17.4837C16.5144 17.4646 16.5507 17.4366 16.5813 17.4012C16.6118 17.3658 16.636 17.3238 16.6525 17.2776C16.6691 17.2314 16.6775 17.1818 16.6775 17.1318L16.6775 16.0683C16.6775 15.8581 16.5305 15.6874 16.3486 15.6874L15.6412 15.6874C15.4597 15.6874 15.3125 15.8581 15.3125 16.0683Z" stroke="#6666FF" stroke-width="2" mask="url(#path-3-inside-1_2749_12448)"/>
<path d="M19.5139 10.811L19.5139 11.8745C19.5141 11.9755 19.5488 12.0723 19.6105 12.1437C19.6722 12.215 19.7558 12.2552 19.843 12.2552L20.5503 12.2552C20.6375 12.2552 20.7211 12.2151 20.7828 12.1437C20.8445 12.0724 20.8792 11.9755 20.8793 11.8745L20.8793 10.811C20.8793 10.6008 20.7317 10.4301 20.5503 10.4301L19.843 10.4301C19.6611 10.4301 19.5139 10.6008 19.5139 10.811Z" stroke="#6666FF" stroke-width="2" mask="url(#path-3-inside-1_2749_12448)"/>
<path d="M19.5139 8.22042L19.5139 9.28346C19.5139 9.49413 19.6615 9.66438 19.843 9.66438L20.5503 9.66438C20.5935 9.66441 20.6362 9.65458 20.6762 9.63545C20.7161 9.61632 20.7524 9.58827 20.7829 9.55289C20.8135 9.51752 20.8377 9.47552 20.8542 9.42928C20.8708 9.38306 20.8793 9.3335 20.8793 9.28346L20.8793 8.22042C20.8793 8.00976 20.7317 7.8395 20.5503 7.8395L19.843 7.8395C19.6611 7.8395 19.5139 8.00976 19.5139 8.22042Z" stroke="#6666FF" stroke-width="2" mask="url(#path-3-inside-1_2749_12448)"/>
<path d="M19.5139 13.4542L19.5139 14.5174C19.5139 14.5674 19.5224 14.6172 19.5389 14.6634C19.5555 14.7096 19.5797 14.7516 19.6103 14.787C19.6409 14.8223 19.6771 14.8503 19.7171 14.8694C19.757 14.8885 19.7998 14.8982 19.843 14.8981L20.5503 14.8981C20.5935 14.8982 20.6362 14.8885 20.6762 14.8694C20.7161 14.8503 20.7524 14.8223 20.7829 14.787C20.8135 14.7516 20.8377 14.7096 20.8543 14.6634C20.8708 14.6172 20.8793 14.5677 20.8793 14.5176L20.8793 13.4542C20.8793 13.2439 20.7317 13.0735 20.5503 13.0735L19.843 13.0735C19.6611 13.0735 19.5139 13.2439 19.5139 13.4542Z" stroke="#6666FF" stroke-width="2" mask="url(#path-3-inside-1_2749_12448)"/>
<path d="M19.5139 18.6883L19.5139 19.7516C19.5139 19.9618 19.6615 20.1323 19.843 20.1323L20.5503 20.1323C20.6375 20.1323 20.7211 20.0922 20.7828 20.0208C20.8445 19.9494 20.8792 19.8526 20.8793 19.7516L20.8793 18.6883C20.8793 18.4781 20.7317 18.3074 20.5503 18.3074L19.843 18.3074C19.6611 18.3074 19.5139 18.4781 19.5139 18.6883Z" stroke="#6666FF" stroke-width="2" mask="url(#path-3-inside-1_2749_12448)"/>
<path d="M19.5139 16.0389L19.5139 17.1022C19.514 17.2032 19.5487 17.3001 19.6104 17.3715C19.6721 17.4429 19.7558 17.4831 19.843 17.4831L20.5503 17.4831C20.6375 17.4831 20.7212 17.443 20.7829 17.3716C20.8446 17.3001 20.8792 17.2032 20.8793 17.1022L20.8793 16.0389C20.8793 15.8285 20.7317 15.658 20.5503 15.658L19.843 15.658C19.6611 15.658 19.5139 15.8285 19.5139 16.0389Z" stroke="#6666FF" stroke-width="2" mask="url(#path-3-inside-1_2749_12448)"/>
<path d="M17.4316 9.54058L17.4316 10.604C17.4316 10.705 17.4662 10.8018 17.5278 10.8732C17.5894 10.9447 17.6729 10.9849 17.7601 10.985L18.4675 10.985C18.5107 10.985 18.5535 10.9752 18.5934 10.9561C18.6333 10.937 18.6696 10.9089 18.7001 10.8735C18.7306 10.8381 18.7548 10.7961 18.7713 10.7499C18.7878 10.7036 18.7963 10.6541 18.7962 10.604L18.7962 9.54058C18.7962 9.33035 18.6494 9.15966 18.4675 9.15966L17.7601 9.15966C17.5786 9.15966 17.4316 9.33035 17.4316 9.54058Z" stroke="#6666FF" stroke-width="2" mask="url(#path-3-inside-1_2749_12448)"/>
<path d="M17.4316 12.1837L17.4316 13.2474C17.4316 13.2974 17.44 13.3469 17.4565 13.393C17.473 13.4392 17.4972 13.4812 17.5277 13.5165C17.5582 13.5518 17.5945 13.5799 17.6343 13.599C17.6742 13.6181 17.7169 13.6279 17.7601 13.6279L18.4675 13.6279C18.5107 13.6279 18.5534 13.6181 18.5933 13.599C18.6332 13.5799 18.6695 13.5519 18.7 13.5166C18.7305 13.4812 18.7547 13.4393 18.7712 13.3931C18.7877 13.3469 18.7962 13.2974 18.7962 13.2474L18.7962 12.1837C18.7962 12.1337 18.7878 12.0842 18.7713 12.0379C18.7548 11.9917 18.7306 11.9497 18.7 11.9144C18.6695 11.879 18.6333 11.851 18.5934 11.8319C18.5535 11.8127 18.5107 11.8029 18.4675 11.803L17.7601 11.803C17.5786 11.803 17.4316 11.9735 17.4316 12.1837Z" stroke="#6666FF" stroke-width="2" mask="url(#path-3-inside-1_2749_12448)"/>
<path d="M17.4316 17.4179L17.4316 18.4811C17.4316 18.6914 17.5786 18.862 17.7601 18.862L18.4675 18.862C18.5107 18.8621 18.5535 18.8523 18.5934 18.8332C18.6333 18.814 18.6696 18.786 18.7001 18.7506C18.7306 18.7152 18.7548 18.6732 18.7713 18.6269C18.7878 18.5807 18.7963 18.5312 18.7962 18.4811L18.7962 17.4179C18.7962 17.3679 18.7878 17.3183 18.7713 17.2721C18.7548 17.2259 18.7306 17.1839 18.7 17.1485C18.6695 17.1132 18.6333 17.0851 18.5934 17.066C18.5535 17.0469 18.5107 17.0371 18.4675 17.0372L17.7601 17.0372C17.5786 17.0372 17.4316 17.2076 17.4316 17.4179Z" stroke="#6666FF" stroke-width="2" mask="url(#path-3-inside-1_2749_12448)"/>
<path d="M17.4316 14.7683L17.4316 15.8317C17.4315 15.8817 17.44 15.9312 17.4565 15.9774C17.473 16.0236 17.4972 16.0656 17.5277 16.101C17.5582 16.1363 17.5944 16.1644 17.6343 16.1835C17.6742 16.2026 17.7169 16.2125 17.7601 16.2124L18.4675 16.2124C18.5107 16.2125 18.5535 16.2027 18.5934 16.1836C18.6333 16.1645 18.6695 16.1364 18.7 16.1011C18.7306 16.0657 18.7548 16.0237 18.7713 15.9775C18.7878 15.9313 18.7962 15.8817 18.7962 15.8317L18.7962 14.7683C18.7962 14.558 18.6494 14.3873 18.4675 14.3873L17.7601 14.3873C17.5786 14.3873 17.4316 14.558 17.4316 14.7683Z" stroke="#6666FF" stroke-width="2" mask="url(#path-3-inside-1_2749_12448)"/>
</g>
<defs>
<filter id="filter0_d_2749_12448" x="-6" y="-4" width="36.3789" height="36" filterUnits="userSpaceOnUse" color-interpolation-filters="sRGB">
<feFlood flood-opacity="0" result="BackgroundImageFix"/>
<feColorMatrix in="SourceAlpha" type="matrix" values="0 0 0 0 0 0 0 0 0 0 0 0 0 0 0 0 0 0 127 0" result="hardAlpha"/>
<feOffset/>
<feGaussianBlur stdDeviation="3"/>
<feComposite in2="hardAlpha" operator="out"/>
<feColorMatrix type="matrix" values="0 0 0 0 0 0 0 0 0 0 0 0 0 0 0 0 0 0 0.05 0"/>
<feBlend mode="normal" in2="BackgroundImageFix" result="effect1_dropShadow_2749_12448"/>
<feBlend mode="normal" in="SourceGraphic" in2="effect1_dropShadow_2749_12448" result="shape"/>
</filter>
</defs>
</svg>
