<svg width="14" height="14" viewBox="0 0 14 14" fill="none" xmlns="http://www.w3.org/2000/svg">
<path fill-rule="evenodd" clip-rule="evenodd" d="M0 2.42537C0 1.91473 0.232894 1.425 0.647448 1.06393C1.062 0.702851 1.62426 0.5 2.21053 0.5H9.57895C10.1652 0.5 10.7275 0.702851 11.142 1.06393C11.5566 1.425 11.7895 1.91473 11.7895 2.42537H12.5263C12.9172 2.42537 13.292 2.5606 13.5684 2.80132C13.8447 3.04204 14 3.36852 14 3.70895V4.59462C14 5.39044 13.6604 6.15785 13.0473 6.74787C12.4341 7.33789 11.5912 7.70842 10.682 7.78752L6.63158 8.14051V8.20148C7.02242 8.20148 7.39726 8.33671 7.67363 8.57743C7.95 8.81815 8.10526 9.14463 8.10526 9.48506V12.0522C8.10526 12.3926 7.95 12.7191 7.67363 12.9598C7.39726 13.2006 7.02242 13.3358 6.63158 13.3358H5.15789C4.76705 13.3358 4.39221 13.2006 4.11584 12.9598C3.83947 12.7191 3.68421 12.3926 3.68421 12.0522V9.48506C3.68421 9.14463 3.83947 8.81815 4.11584 8.57743C4.39221 8.33671 4.76705 8.20148 5.15789 8.20148V8.14051C5.15791 7.8222 5.29371 7.51525 5.53893 7.27925C5.78416 7.04324 6.12131 6.89502 6.48495 6.86334L10.5361 6.51036C11.0815 6.46278 11.5871 6.24041 11.9549 5.88641C12.3227 5.53241 12.5263 5.07203 12.5263 4.59462V3.70895H11.7895C11.7895 4.21959 11.5566 4.70931 11.142 5.07039C10.7275 5.43147 10.1652 5.63432 9.57895 5.63432H2.21053C1.62426 5.63432 1.062 5.43147 0.647448 5.07039C0.232894 4.70931 0 4.21959 0 3.70895V2.42537ZM6.63158 9.48506H5.15789V12.0522H6.63158V9.48506ZM2.21053 1.78358C2.0151 1.78358 1.82769 1.8512 1.6895 1.97156C1.55132 2.09191 1.47368 2.25516 1.47368 2.42537V3.70895C1.47368 3.87916 1.55132 4.0424 1.6895 4.16276C1.82769 4.28312 2.0151 4.35074 2.21053 4.35074H9.57895C9.77437 4.35074 9.96179 4.28312 10.1 4.16276C10.2382 4.0424 10.3158 3.87916 10.3158 3.70895V2.42537C10.3158 2.25516 10.2382 2.09191 10.1 1.97156C9.96179 1.8512 9.77437 1.78358 9.57895 1.78358H2.21053Z" fill="#0512F5"/>
</svg>
