<svg width="12" height="15" viewBox="0 0 12 15" fill="none" xmlns="http://www.w3.org/2000/svg">
<path d="M6 4.63043V4.8913M6 4.63043C6 3.80019 6.31607 3.00395 6.87868 2.41688C7.44129 1.82981 8.20435 1.5 9 1.5H9.25V4.8913C9.25 5.79073 8.90759 6.65333 8.2981 7.28932C7.6886 7.92531 6.86195 8.28261 6 8.28261M6 4.63043C6 3.80019 5.68393 3.00395 5.12132 2.41688C4.55871 1.82981 3.79565 1.5 3 1.5H2.75V4.8913C2.75 5.79073 3.09241 6.65333 3.7019 7.28932C4.3114 7.92531 5.13805 8.28261 6 8.28261M6 8.28261V13.2391M6 8.28261V12.9783M6 13.5H3.75C2.95435 13.5 2.19129 13.1702 1.62868 12.5831C1.06607 11.996 0.75 11.1998 0.75 10.3696H3C3.79565 10.3696 4.55871 10.6994 5.12132 11.2864C5.68393 11.8735 6 12.6698 6 13.5ZM6 13.5H8.25C9.04565 13.5 9.80871 13.1702 10.3713 12.5831C10.9339 11.996 11.25 11.1998 11.25 10.3696H9C8.20435 10.3696 7.44129 10.6994 6.87868 11.2864C6.31607 11.8735 6 12.6698 6 13.5Z" stroke="#0512F5" stroke-width="1.5"/>
</svg>
