<svg width="30" height="28" viewBox="0 0 30 28" fill="none" xmlns="http://www.w3.org/2000/svg">
<g filter="url(#filter0_d_2749_12435)">
<path d="M14.301 8.69276L12.4945 7.42418C12.3919 7.35209 12.2647 7.32367 12.1411 7.34519C12.0174 7.36671 11.9074 7.4364 11.8352 7.53893L7.84295 13.2089C7.80721 13.2596 7.78182 13.3169 7.76825 13.3775C7.75468 13.4381 7.75319 13.5007 7.76386 13.5618C7.77453 13.623 7.79715 13.6814 7.83044 13.7338C7.86372 13.7862 7.90702 13.8316 7.95786 13.8673L9.76434 15.1359C9.81517 15.1716 9.87255 15.1969 9.93319 15.2105C9.99384 15.224 10.0566 15.2255 10.1178 15.2148C10.179 15.2042 10.2375 15.1816 10.29 15.1484C10.3425 15.1151 10.3879 15.0719 10.4236 15.0211L14.4159 9.35118C14.4881 9.24865 14.5166 9.12168 14.495 8.9982C14.4735 8.87472 14.4037 8.76485 14.301 8.69276ZM22.0431 14.1295L20.2366 12.8609C20.1339 12.7888 20.0068 12.7604 19.8831 12.7819C19.7595 12.8035 19.6495 12.8731 19.5773 12.9757L15.585 18.6456C15.5493 18.6964 15.5239 18.7537 15.5103 18.8142C15.4967 18.8748 15.4952 18.9374 15.5059 18.9986C15.5166 19.0597 15.5392 19.1182 15.5725 19.1706C15.6058 19.223 15.6491 19.2683 15.6999 19.304L17.5064 20.5726C17.5572 20.6083 17.6146 20.6337 17.6753 20.6472C17.7359 20.6608 17.7986 20.6622 17.8598 20.6516C17.9211 20.6409 17.9796 20.6183 18.0321 20.5851C18.0845 20.5519 18.13 20.5086 18.1657 20.4579L22.158 14.7879C22.2302 14.6854 22.2586 14.5584 22.2371 14.435C22.2155 14.3115 22.1457 14.2016 22.0431 14.1295Z" stroke="#6666FF" stroke-linecap="round" stroke-linejoin="round"/>
<path d="M12.4169 12.1892L17.5841 15.8079M6.80741 10.5694L8.98381 7.47646C9.05596 7.37392 9.16599 7.30418 9.28969 7.28257C9.41338 7.26096 9.54062 7.28926 9.6434 7.36124L10.806 8.17544C10.9088 8.24742 10.9787 8.35719 11.0004 8.48059C11.022 8.60399 10.9937 8.73092 10.9215 8.83346L8.74511 11.9264C8.67296 12.0289 8.56294 12.0986 8.43924 12.1203C8.31554 12.1419 8.18831 12.1136 8.08552 12.0416L6.9229 11.2274C6.82012 11.1554 6.75021 11.0456 6.72855 10.9222C6.70689 10.7988 6.73526 10.6719 6.80741 10.5694ZM21.0172 20.5207L23.1936 17.4278C23.2658 17.3252 23.2942 17.1983 23.2725 17.0749C23.2508 16.9515 23.1809 16.8417 23.0781 16.7698L21.9155 15.9556C21.8127 15.8836 21.6855 15.8553 21.5618 15.8769C21.4381 15.8985 21.3281 15.9682 21.2559 16.0708L19.0795 19.1637C19.0074 19.2662 18.979 19.3932 19.0007 19.5166C19.0223 19.64 19.0922 19.7497 19.195 19.8217L20.3576 20.6359C20.4604 20.7079 20.5877 20.7362 20.7114 20.7146C20.8351 20.693 20.9451 20.6232 21.0172 20.5207Z" stroke="#6666FF" stroke-linecap="round" stroke-linejoin="round"/>
</g>
<defs>
<filter id="filter0_d_2749_12435" x="-3" y="-4" width="36" height="36" filterUnits="userSpaceOnUse" color-interpolation-filters="sRGB">
<feFlood flood-opacity="0" result="BackgroundImageFix"/>
<feColorMatrix in="SourceAlpha" type="matrix" values="0 0 0 0 0 0 0 0 0 0 0 0 0 0 0 0 0 0 127 0" result="hardAlpha"/>
<feOffset/>
<feGaussianBlur stdDeviation="3"/>
<feComposite in2="hardAlpha" operator="out"/>
<feColorMatrix type="matrix" values="0 0 0 0 0 0 0 0 0 0 0 0 0 0 0 0 0 0 0.05 0"/>
<feBlend mode="normal" in2="BackgroundImageFix" result="effect1_dropShadow_2749_12435"/>
<feBlend mode="normal" in="SourceGraphic" in2="effect1_dropShadow_2749_12435" result="shape"/>
</filter>
</defs>
</svg>
