<svg width="28" height="27" viewBox="0 0 28 27" fill="none" xmlns="http://www.w3.org/2000/svg">
<g filter="url(#filter0_d_2749_12477)">
<path d="M8.9172 14.8071L10.285 13.8362C10.6537 13.571 11.0679 13.3758 11.5072 13.2602C12.0196 13.1237 12.2492 12.8437 12.2492 12.2466C12.2492 10.7311 15.7491 10.5701 15.7491 12.2466C15.7491 12.8437 15.9787 13.1237 16.4911 13.2595C16.9405 13.3799 17.3311 13.564 17.7133 13.8362L19.0811 14.8064C19.6991 15.246 19.9875 15.4581 20.1478 15.7962C20.299 16.114 20.299 16.4864 20.299 17.2312C20.299 18.571 20.299 19.2409 19.9238 19.67C19.4695 20.1901 18.2887 20.146 17.5635 20.146H10.4348C9.70959 20.146 8.55251 20.2181 8.07441 19.67C7.69922 19.2409 7.69922 18.571 7.69922 17.2312C7.69922 16.4864 7.69922 16.114 7.85042 15.7962C8.01141 15.4588 8.29841 15.246 8.9172 14.8064" stroke="#6666FF" stroke-linecap="round" stroke-linejoin="round"/>
<path d="M10.4721 7.33785C9.54948 7.60105 8.88589 7.92794 8.2783 8.32274C7.31721 8.94713 6.90492 10.072 7.01832 11.1577C7.06592 11.6169 7.43481 11.8367 7.8618 11.7177C8.1866 11.6267 8.5114 11.5392 8.83409 11.444C9.77698 11.164 9.99887 10.8238 10.1298 9.85852L10.4721 7.33785ZM10.4721 7.33785C12.7533 6.68686 15.2467 6.68686 17.528 7.33785M17.528 7.33785C18.4506 7.60105 19.1141 7.92794 19.7217 8.32274C20.6828 8.94713 21.0951 10.072 20.9817 11.1577C20.9341 11.6169 20.5652 11.8367 20.1382 11.7177C19.8141 11.6267 19.4886 11.5392 19.1659 11.444C18.2231 11.164 18.0012 10.8238 17.8703 9.85852L17.528 7.33785ZM15.4 16.6491C15.4 17.0204 15.2525 17.3765 14.99 17.6391C14.7274 17.9016 14.3713 18.0491 14 18.0491C13.6287 18.0491 13.2726 17.9016 13.0101 17.6391C12.7475 17.3765 12.6 17.0204 12.6 16.6491C12.6 16.2778 12.7475 15.9217 13.0101 15.6592C13.2726 15.3966 13.6287 15.2491 14 15.2491C14.3713 15.2491 14.7274 15.3966 14.99 15.6592C15.2525 15.9217 15.4 16.2778 15.4 16.6491Z" stroke="#6666FF" stroke-linecap="round" stroke-linejoin="round"/>
</g>
<defs>
<filter id="filter0_d_2749_12477" x="-4" y="-5" width="36" height="36" filterUnits="userSpaceOnUse" color-interpolation-filters="sRGB">
<feFlood flood-opacity="0" result="BackgroundImageFix"/>
<feColorMatrix in="SourceAlpha" type="matrix" values="0 0 0 0 0 0 0 0 0 0 0 0 0 0 0 0 0 0 127 0" result="hardAlpha"/>
<feOffset/>
<feGaussianBlur stdDeviation="3"/>
<feComposite in2="hardAlpha" operator="out"/>
<feColorMatrix type="matrix" values="0 0 0 0 0 0 0 0 0 0 0 0 0 0 0 0 0 0 0.05 0"/>
<feBlend mode="normal" in2="BackgroundImageFix" result="effect1_dropShadow_2749_12477"/>
<feBlend mode="normal" in="SourceGraphic" in2="effect1_dropShadow_2749_12477" result="shape"/>
</filter>
</defs>
</svg>
