<svg width="12" height="14" viewBox="0 0 12 14" fill="none" xmlns="http://www.w3.org/2000/svg">
<path fill-rule="evenodd" clip-rule="evenodd" d="M6 0.5C7.5913 0.5 9.11742 1.11124 10.2426 2.19924C11.3679 3.28725 12 4.7629 12 6.30157C12 8.28313 10.8827 9.905 9.70533 11.0685C9.11712 11.6436 8.47528 12.1649 7.788 12.6259L7.504 12.8129L7.37067 12.8986L7.11933 13.0533L6.89533 13.1855L6.618 13.3415C6.42976 13.4454 6.21675 13.5 6 13.5C5.78325 13.5 5.57024 13.4454 5.382 13.3415L5.10467 13.1855L4.758 12.9792L4.63 12.8986L4.35667 12.7226C3.61522 12.2376 2.9246 11.6836 2.29467 11.0685C1.11733 9.90435 0 8.28313 0 6.30157C0 4.7629 0.632141 3.28725 1.75736 2.19924C2.88258 1.11124 4.4087 0.5 6 0.5ZM6 1.78924C4.76232 1.78924 3.57534 2.26464 2.70017 3.11087C1.825 3.9571 1.33333 5.10483 1.33333 6.30157C1.33333 7.79838 2.18133 9.11211 3.24733 10.1667C3.70569 10.6154 4.20111 11.0271 4.72867 11.3979L5.034 11.6081C5.13267 11.6747 5.22756 11.7366 5.31867 11.7937L5.57867 11.9549L5.80733 12.0896L6 12.1986L6.30333 12.0251L6.548 11.8769C6.67822 11.797 6.81756 11.7074 6.966 11.6081L7.27133 11.3979C7.79889 11.0271 8.29431 10.6154 8.75267 10.1667C9.81867 9.11276 10.6667 7.79838 10.6667 6.30157C10.6667 5.10483 10.175 3.9571 9.29983 3.11087C8.42466 2.26464 7.23768 1.78924 6 1.78924ZM6 3.7231C6.70724 3.7231 7.38552 3.99476 7.88562 4.47832C8.38572 4.96187 8.66667 5.61772 8.66667 6.30157C8.66667 6.98543 8.38572 7.64127 7.88562 8.12483C7.38552 8.60839 6.70724 8.88005 6 8.88005C5.29276 8.88005 4.61448 8.60839 4.11438 8.12483C3.61428 7.64127 3.33333 6.98543 3.33333 6.30157C3.33333 5.61772 3.61428 4.96187 4.11438 4.47832C4.61448 3.99476 5.29276 3.7231 6 3.7231ZM6 5.01234C5.64638 5.01234 5.30724 5.14817 5.05719 5.38995C4.80714 5.63172 4.66667 5.95965 4.66667 6.30157C4.66667 6.6435 4.80714 6.97142 5.05719 7.2132C5.30724 7.45498 5.64638 7.59081 6 7.59081C6.35362 7.59081 6.69276 7.45498 6.94281 7.2132C7.19286 6.97142 7.33333 6.6435 7.33333 6.30157C7.33333 5.95965 7.19286 5.63172 6.94281 5.38995C6.69276 5.14817 6.35362 5.01234 6 5.01234Z" fill="#0512F5"/>
</svg>
