<svg width="26" height="28" viewBox="0 0 26 28" fill="none" xmlns="http://www.w3.org/2000/svg">
<g filter="url(#filter0_d_2749_12466)">
<path d="M13 21C9.68667 21 7 19.1926 7 16.1V16.0384C7 14.5558 7.892 13.37 9.25 12.6C10.5493 11.8636 11.3173 10.507 11.1253 9.1L10.75 7L12.1407 7.5565C14.6453 8.5575 16.7313 10.2949 18.0833 12.5027C18.6776 13.4618 18.9959 14.5806 19 15.7248V16.1C19 17.1934 18.664 18.1265 18.0833 18.8755" stroke="#6666FF" stroke-width="1.5" stroke-linecap="round" stroke-linejoin="round"/>
<path d="M13 21C11.8953 21 11 19.9252 11 18.6C11 17.55 11.6773 16.7092 12.2733 15.939L13 15L13.7267 15.939C14.3227 16.71 15 17.55 15 18.6C15 19.9252 14.1047 21 13 21Z" stroke="#6666FF" stroke-width="1.5" stroke-linecap="round" stroke-linejoin="round"/>
</g>
<defs>
<filter id="filter0_d_2749_12466" x="-5" y="-4" width="36" height="36" filterUnits="userSpaceOnUse" color-interpolation-filters="sRGB">
<feFlood flood-opacity="0" result="BackgroundImageFix"/>
<feColorMatrix in="SourceAlpha" type="matrix" values="0 0 0 0 0 0 0 0 0 0 0 0 0 0 0 0 0 0 127 0" result="hardAlpha"/>
<feOffset/>
<feGaussianBlur stdDeviation="3"/>
<feComposite in2="hardAlpha" operator="out"/>
<feColorMatrix type="matrix" values="0 0 0 0 0 0 0 0 0 0 0 0 0 0 0 0 0 0 0.05 0"/>
<feBlend mode="normal" in2="BackgroundImageFix" result="effect1_dropShadow_2749_12466"/>
<feBlend mode="normal" in="SourceGraphic" in2="effect1_dropShadow_2749_12466" result="shape"/>
</filter>
</defs>
</svg>
