<svg width="29" height="32" viewBox="0 0 29 32" fill="none" xmlns="http://www.w3.org/2000/svg">
<g filter="url(#filter0_d_2749_12441)">
<path fill-rule="evenodd" clip-rule="evenodd" d="M15.0039 24.7062L14.9946 24.7079L14.9342 24.7376L14.9172 24.741L14.9053 24.7376L14.845 24.7079C14.8359 24.7051 14.8291 24.7065 14.8246 24.7121L14.8212 24.7206L14.8067 25.0844L14.811 25.1014L14.8195 25.1125L14.9079 25.1754L14.9206 25.1788L14.9308 25.1754L15.0192 25.1125L15.0294 25.0989L15.0328 25.0844L15.0184 24.7215C15.0161 24.7124 15.0113 24.7073 15.0039 24.7062ZM15.2292 24.6101L15.2181 24.6118L15.0609 24.6909L15.0524 24.6994L15.0498 24.7087L15.0651 25.0742L15.0694 25.0844L15.0762 25.0904L15.247 25.1694C15.2578 25.1723 15.266 25.17 15.2717 25.1626L15.2751 25.1507L15.2462 24.6288C15.2433 24.6186 15.2377 24.6124 15.2292 24.6101ZM14.6214 24.6118C14.6177 24.6096 14.6132 24.6088 14.6089 24.6098C14.6046 24.6107 14.6009 24.6133 14.5985 24.6169L14.5934 24.6288L14.5645 25.1507C14.565 25.1609 14.5698 25.1677 14.5789 25.1711L14.5917 25.1694L14.7625 25.0904L14.771 25.0836L14.7744 25.0742L14.7889 24.7087L14.7863 24.6985L14.7778 24.69L14.6214 24.6118Z" fill="#6666FF"/>
<path fill-rule="evenodd" clip-rule="evenodd" d="M14.5 6.63672C19.1946 6.63672 23 10.4422 23 15.1367C23 19.8313 19.1946 23.6367 14.5 23.6367C9.80545 23.6367 6 19.8313 6 15.1367C6 10.4422 9.80545 6.63672 14.5 6.63672ZM14.5 8.33672C12.6965 8.33672 10.9669 9.05315 9.69167 10.3284C8.41643 11.6036 7.7 13.3332 7.7 15.1367C7.7 16.9402 8.41643 18.6698 9.69167 19.945C10.9669 21.2203 12.6965 21.9367 14.5 21.9367C16.3035 21.9367 18.0331 21.2203 19.3083 19.945C20.5836 18.6698 21.3 16.9402 21.3 15.1367C21.3 13.3332 20.5836 11.6036 19.3083 10.3284C18.0331 9.05315 16.3035 8.33672 14.5 8.33672ZM15.775 10.8867C16.5506 10.8856 17.296 11.1874 17.8523 11.7279C18.4087 12.2684 18.7319 13.0048 18.7532 13.7801C18.7745 14.5554 18.4921 15.3084 17.9663 15.8786C17.4404 16.4488 16.7127 16.791 15.9382 16.8325L15.775 16.8367H13.65V18.5367C13.6498 18.7534 13.5668 18.9617 13.4181 19.1193C13.2694 19.2768 13.0661 19.3716 12.8498 19.3843C12.6335 19.397 12.4206 19.3266 12.2544 19.1876C12.0883 19.0485 11.9815 18.8513 11.956 18.6362L11.95 18.5367V12.5867C11.9499 12.1578 12.1118 11.7447 12.4035 11.4303C12.6951 11.1158 13.0948 10.9231 13.5225 10.891L13.65 10.8867H15.775ZM15.775 12.5867H13.65V15.1367H15.775C16.1024 15.1366 16.4173 15.0104 16.6542 14.7845C16.8912 14.5585 17.0322 14.25 17.0479 13.923C17.0636 13.5959 16.9529 13.2754 16.7388 13.0277C16.5246 12.78 16.2233 12.6243 15.8974 12.5927L15.775 12.5867Z" fill="#6666FF"/>
</g>
<defs>
<filter id="filter0_d_2749_12441" x="-3.5" y="-3" width="36" height="36" filterUnits="userSpaceOnUse" color-interpolation-filters="sRGB">
<feFlood flood-opacity="0" result="BackgroundImageFix"/>
<feColorMatrix in="SourceAlpha" type="matrix" values="0 0 0 0 0 0 0 0 0 0 0 0 0 0 0 0 0 0 127 0" result="hardAlpha"/>
<feOffset/>
<feGaussianBlur stdDeviation="3"/>
<feComposite in2="hardAlpha" operator="out"/>
<feColorMatrix type="matrix" values="0 0 0 0 0 0 0 0 0 0 0 0 0 0 0 0 0 0 0.05 0"/>
<feBlend mode="normal" in2="BackgroundImageFix" result="effect1_dropShadow_2749_12441"/>
<feBlend mode="normal" in="SourceGraphic" in2="effect1_dropShadow_2749_12441" result="shape"/>
</filter>
</defs>
</svg>
