<svg width="27" height="26" viewBox="0 0 27 26" fill="none" xmlns="http://www.w3.org/2000/svg">
<g filter="url(#filter0_d_2749_12457)">
<path d="M8.25 12.6316C7.76 12.6316 7.34583 12.4535 7.0075 12.0974C6.66917 11.7412 6.5 11.3053 6.5 10.7895C6.5 10.2737 6.66917 9.83772 7.0075 9.48158C7.34583 9.12544 7.76 8.94737 8.25 8.94737C8.74 8.94737 9.15417 9.12544 9.4925 9.48158C9.83083 9.83772 10 10.2737 10 10.7895C10 11.3053 9.83083 11.7412 9.4925 12.0974C9.15417 12.4535 8.74 12.6316 8.25 12.6316ZM11.4 9.68421C10.91 9.68421 10.4958 9.50614 10.1575 9.15C9.81917 8.79386 9.65 8.35789 9.65 7.84211C9.65 7.32632 9.81917 6.89035 10.1575 6.53421C10.4958 6.17807 10.91 6 11.4 6C11.89 6 12.3042 6.17807 12.6425 6.53421C12.9808 6.89035 13.15 7.32632 13.15 7.84211C13.15 8.35789 12.9808 8.79386 12.6425 9.15C12.3042 9.50614 11.89 9.68421 11.4 9.68421ZM15.6 9.68421C15.11 9.68421 14.6958 9.50614 14.3575 9.15C14.0192 8.79386 13.85 8.35789 13.85 7.84211C13.85 7.32632 14.0192 6.89035 14.3575 6.53421C14.6958 6.17807 15.11 6 15.6 6C16.09 6 16.5042 6.17807 16.8425 6.53421C17.1808 6.89035 17.35 7.32632 17.35 7.84211C17.35 8.35789 17.1808 8.79386 16.8425 9.15C16.5042 9.50614 16.09 9.68421 15.6 9.68421ZM18.75 12.6316C18.26 12.6316 17.8458 12.4535 17.5075 12.0974C17.1692 11.7412 17 11.3053 17 10.7895C17 10.2737 17.1692 9.83772 17.5075 9.48158C17.8458 9.12544 18.26 8.94737 18.75 8.94737C19.24 8.94737 19.6542 9.12544 19.9925 9.48158C20.3308 9.83772 20.5 10.2737 20.5 10.7895C20.5 11.3053 20.3308 11.7412 19.9925 12.0974C19.6542 12.4535 19.24 12.6316 18.75 12.6316ZM9.755 20C9.23 20 8.78947 19.7883 8.4334 19.3648C8.07733 18.9414 7.89953 18.4408 7.9 17.8632C7.9 17.2246 8.1072 16.6658 8.5216 16.1868C8.936 15.7079 9.34713 15.2351 9.755 14.7684C10.0933 14.3877 10.385 13.9734 10.63 13.5254C10.875 13.0774 11.1667 12.6566 11.505 12.2632C11.7617 11.9439 12.0592 11.6798 12.3975 11.4711C12.7358 11.2623 13.1033 11.1579 13.5 11.1579C13.8967 11.1579 14.2642 11.2561 14.6025 11.4526C14.9408 11.6491 15.2383 11.907 15.495 12.2263C15.8217 12.6193 16.1105 13.043 16.3616 13.4974C16.6127 13.9518 16.9071 14.3754 17.245 14.7684C17.6533 15.2351 18.0645 15.7079 18.4784 16.1868C18.8923 16.6658 19.0995 17.2246 19.1 17.8632C19.1 18.4403 18.922 18.9409 18.5659 19.3648C18.2098 19.7888 17.7695 20.0005 17.245 20C16.615 20 15.9908 19.9447 15.3725 19.8342C14.7542 19.7237 14.13 19.6684 13.5 19.6684C12.87 19.6684 12.2458 19.7237 11.6275 19.8342C11.0092 19.9447 10.385 20 9.755 20Z" fill="#6666FF"/>
</g>
<defs>
<filter id="filter0_d_2749_12457" x="-4" y="-5" width="36" height="36" filterUnits="userSpaceOnUse" color-interpolation-filters="sRGB">
<feFlood flood-opacity="0" result="BackgroundImageFix"/>
<feColorMatrix in="SourceAlpha" type="matrix" values="0 0 0 0 0 0 0 0 0 0 0 0 0 0 0 0 0 0 127 0" result="hardAlpha"/>
<feOffset/>
<feGaussianBlur stdDeviation="3"/>
<feComposite in2="hardAlpha" operator="out"/>
<feColorMatrix type="matrix" values="0 0 0 0 0 0 0 0 0 0 0 0 0 0 0 0 0 0 0.05 0"/>
<feBlend mode="normal" in2="BackgroundImageFix" result="effect1_dropShadow_2749_12457"/>
<feBlend mode="normal" in="SourceGraphic" in2="effect1_dropShadow_2749_12457" result="shape"/>
</filter>
</defs>
</svg>
