<svg width="28" height="28" viewBox="0 0 28 28" fill="none" xmlns="http://www.w3.org/2000/svg">
<g filter="url(#filter0_d_2749_12461)">
<path d="M13.3334 19.3329C12.9667 19.3329 12.6529 19.2025 12.392 18.9416C12.1312 18.6807 12.0005 18.3667 12 17.9996V16.6663C12 16.2996 12.1307 15.9858 12.392 15.7249C12.6534 15.4641 12.9672 15.3334 13.3334 15.3329H14.6667C15.0334 15.3329 15.3474 15.4636 15.6087 15.7249C15.87 15.9863 16.0005 16.3001 16 16.6663V17.9996C16 18.3663 15.8696 18.6803 15.6087 18.9416C15.3478 19.2029 15.0338 19.3334 14.6667 19.3329H13.3334ZM13.3334 17.9996H14.6667V16.6663H13.3334V17.9996ZM8.00005 14.2663C7.84449 14.3774 7.67783 14.4218 7.50005 14.3996C7.32227 14.3774 7.17783 14.2885 7.06671 14.1329C6.9556 13.9774 6.91405 13.8107 6.94205 13.6329C6.97005 13.4552 7.05605 13.3107 7.20005 13.1996L13.1834 8.61628C13.3056 8.52739 13.4363 8.46072 13.5754 8.41628C13.7145 8.37183 13.856 8.34961 14 8.34961C14.144 8.34961 14.2858 8.37183 14.4254 8.41628C14.5649 8.46072 14.6954 8.52739 14.8167 8.61628L16.6667 10.0329V9.66628C16.6667 9.3885 16.764 9.1525 16.9587 8.95828C17.1534 8.76405 17.3894 8.66672 17.6667 8.66628C17.944 8.66583 18.1803 8.76316 18.3754 8.95828C18.5705 9.15339 18.6676 9.38939 18.6667 9.66628V11.5663L20.8167 13.1996C20.9612 13.3107 21.0445 13.4552 21.0667 13.6329C21.0889 13.8107 21.0445 13.9774 20.9334 14.1329C20.8223 14.2885 20.6778 14.3774 20.5 14.3996C20.3223 14.4218 20.1556 14.3774 20 14.2663L14 9.68294L8.00005 14.2663Z" fill="#6666FF"/>
</g>
<defs>
<filter id="filter0_d_2749_12461" x="-4" y="-4" width="36" height="36" filterUnits="userSpaceOnUse" color-interpolation-filters="sRGB">
<feFlood flood-opacity="0" result="BackgroundImageFix"/>
<feColorMatrix in="SourceAlpha" type="matrix" values="0 0 0 0 0 0 0 0 0 0 0 0 0 0 0 0 0 0 127 0" result="hardAlpha"/>
<feOffset/>
<feGaussianBlur stdDeviation="3"/>
<feComposite in2="hardAlpha" operator="out"/>
<feColorMatrix type="matrix" values="0 0 0 0 0 0 0 0 0 0 0 0 0 0 0 0 0 0 0.05 0"/>
<feBlend mode="normal" in2="BackgroundImageFix" result="effect1_dropShadow_2749_12461"/>
<feBlend mode="normal" in="SourceGraphic" in2="effect1_dropShadow_2749_12461" result="shape"/>
</filter>
</defs>
</svg>
