<svg width="26" height="28" viewBox="0 0 26 28" fill="none" xmlns="http://www.w3.org/2000/svg">
<g filter="url(#filter0_d_2749_12473)">
<path d="M13 6L20 8.42215V14C20 16.8561 18.2269 18.8526 16.5728 20.092C15.575 20.8335 14.48 21.4377 13.3178 21.8879L13.2569 21.9107L13.2394 21.917L13.2345 21.9183L13.2324 21.919C13.2324 21.919 13.231 21.919 13 21.2664L12.7683 21.9197L12.7655 21.9183L12.7606 21.917L12.7431 21.91L12.6822 21.8879C12.3521 21.7617 12.0274 21.6218 11.7092 21.4685C10.9059 21.0827 10.1417 20.6218 9.4272 20.092C7.7738 18.8526 6 16.8561 6 14V8.42215L13 6ZM13 21.2664L12.7683 21.9197L13 22L13.2317 21.9197L13 21.2664ZM13 20.5246L13.0063 20.5218C13.9749 20.126 14.8891 19.611 15.7272 18.9889C17.2238 17.8685 18.6 16.2305 18.6 14V9.40484L13 7.46713L7.4 9.40484V14C7.4 16.2305 8.7762 17.8671 10.2728 18.9896C11.1128 19.6129 12.0291 20.1286 13 20.5246Z" fill="#6666FF"/>
</g>
<defs>
<filter id="filter0_d_2749_12473" x="-5" y="-4" width="36" height="36" filterUnits="userSpaceOnUse" color-interpolation-filters="sRGB">
<feFlood flood-opacity="0" result="BackgroundImageFix"/>
<feColorMatrix in="SourceAlpha" type="matrix" values="0 0 0 0 0 0 0 0 0 0 0 0 0 0 0 0 0 0 127 0" result="hardAlpha"/>
<feOffset/>
<feGaussianBlur stdDeviation="3"/>
<feComposite in2="hardAlpha" operator="out"/>
<feColorMatrix type="matrix" values="0 0 0 0 0 0 0 0 0 0 0 0 0 0 0 0 0 0 0.05 0"/>
<feBlend mode="normal" in2="BackgroundImageFix" result="effect1_dropShadow_2749_12473"/>
<feBlend mode="normal" in="SourceGraphic" in2="effect1_dropShadow_2749_12473" result="shape"/>
</filter>
</defs>
</svg>
