<svg width="12" height="12" viewBox="0 0 12 12" fill="none" xmlns="http://www.w3.org/2000/svg">
<path d="M2.79167 10.1667V8.125C2.79167 7.95972 2.84767 7.82128 2.95967 7.70967C3.07167 7.59806 3.21011 7.54206 3.375 7.54167H5.41667V5.5C5.41667 5.33472 5.47267 5.19628 5.58467 5.08467C5.69667 4.97306 5.83511 4.91706 6 4.91667H8.04167V2.875C8.04167 2.70972 8.09767 2.57128 8.20967 2.45967C8.32167 2.34806 8.46011 2.29206 8.625 2.29167H10.6667V0.833335C10.6667 0.668058 10.7227 0.529613 10.8347 0.418002C10.9467 0.306391 11.0851 0.250391 11.25 0.250002C11.4149 0.249613 11.5535 0.305613 11.6659 0.418002C11.7783 0.530391 11.8341 0.668835 11.8333 0.833335V2.875C11.8333 3.04028 11.7773 3.17892 11.6653 3.29092C11.5533 3.40292 11.4149 3.45872 11.25 3.45834H9.20833V5.5C9.20833 5.66528 9.15234 5.80392 9.04034 5.91592C8.92834 6.02792 8.78989 6.08372 8.625 6.08334H6.58334V8.125C6.58334 8.29028 6.52734 8.42892 6.41534 8.54092C6.30334 8.65292 6.16489 8.70872 6 8.70833H3.95834V10.75C3.95834 10.9153 3.90234 11.0539 3.79034 11.1659C3.67834 11.2779 3.53989 11.3337 3.375 11.3333H1.33334C1.16806 11.3333 1.02961 11.2773 0.918002 11.1653C0.806391 11.0533 0.750391 10.9149 0.750002 10.75C0.749613 10.5851 0.805613 10.4467 0.918002 10.3347C1.03039 10.2227 1.16884 10.1667 1.33334 10.1667H2.79167Z" fill="#0512F5"/>
</svg>
