<svg width="25" height="26" viewBox="0 0 25 26" fill="none" xmlns="http://www.w3.org/2000/svg">
<g filter="url(#filter0_d_2749_12427)">
<path d="M8.51082 7.37143C8.32896 7.37143 8.15455 7.44367 8.02595 7.57227C7.89735 7.70087 7.82511 7.87528 7.82511 8.05714V8.51429C7.82511 8.69615 7.75286 8.87056 7.62427 8.99916C7.49567 9.12776 7.32126 9.2 7.13939 9.2C6.95753 9.2 6.78312 9.12776 6.65452 8.99916C6.52593 8.87056 6.45368 8.69615 6.45368 8.51429V8.05714C6.45368 7.51155 6.67041 6.98831 7.0562 6.60252C7.44199 6.21673 7.96524 6 8.51082 6C9.05641 6 9.57965 6.21673 9.96544 6.60252C10.3512 6.98831 10.568 7.51155 10.568 8.05714V10.5714H15.1394V8.05714C15.1394 7.87528 15.0672 7.70087 14.9386 7.57227C14.81 7.44367 14.6355 7.37143 14.4537 7.37143C14.2718 7.37143 14.0974 7.44367 13.9688 7.57227C13.8402 7.70087 13.768 7.87528 13.768 8.05714V8.51429C13.768 8.69615 13.6957 8.87056 13.5671 8.99916C13.4385 9.12776 13.2641 9.2 13.0823 9.2C12.9004 9.2 12.726 9.12776 12.5974 8.99916C12.4688 8.87056 12.3965 8.69615 12.3965 8.51429V8.05714C12.3965 7.51155 12.6133 6.98831 12.9991 6.60252C13.3849 6.21673 13.9081 6 14.4537 6C14.9993 6 15.5225 6.21673 15.9083 6.60252C16.2941 6.98831 16.5108 7.51155 16.5108 8.05714V14.4855C16.0676 14.6263 15.6044 14.6942 15.1394 14.6866V11.9429H10.568V13.0665C10.1195 12.9497 9.65965 12.882 9.19654 12.8645V8.05714C9.19654 7.87528 9.12429 7.70087 8.9957 7.57227C8.8671 7.44367 8.69269 7.37143 8.51082 7.37143ZM8.56842 15.1675C8.03665 15.2225 7.52854 15.4158 7.0946 15.728C6.9485 15.8364 6.76533 15.8823 6.58538 15.8556C6.40543 15.829 6.24344 15.7319 6.13505 15.5858C6.02666 15.4397 5.98075 15.2566 6.00741 15.0766C6.03407 14.8967 6.13113 14.7347 6.27722 14.6263C6.90532 14.1703 7.6421 13.8872 8.41391 13.8053C9.45894 13.6864 10.7655 13.8866 12.285 14.7671C14.9666 16.3232 17.1335 15.2965 17.768 14.9243C17.9249 14.8323 18.1119 14.8064 18.2879 14.8523C18.4639 14.8981 18.6145 15.012 18.7065 15.1689C18.7985 15.3258 18.8244 15.5128 18.7786 15.6888C18.7327 15.8648 18.6188 16.0154 18.4619 16.1074C17.6253 16.5984 14.8916 17.8647 11.5956 15.9538C10.3065 15.2059 9.29437 15.0853 8.56842 15.1675ZM8.56842 17.9104C8.03665 17.9654 7.52854 18.1586 7.0946 18.4709C6.9485 18.5792 6.76533 18.6252 6.58538 18.5985C6.40543 18.5718 6.24344 18.4748 6.13505 18.3287C6.02666 18.1826 5.98075 17.9994 6.00741 17.8195C6.03407 17.6395 6.13113 17.4775 6.27722 17.3691C6.90532 16.9132 7.6421 16.6301 8.41391 16.5481C9.45894 16.4293 10.7655 16.6295 12.285 17.5099C14.9666 19.0661 17.1335 18.0393 17.768 17.6672C17.9249 17.5752 18.1119 17.5492 18.2879 17.5951C18.4639 17.641 18.6145 17.7549 18.7065 17.9118C18.7985 18.0687 18.8244 18.2557 18.7786 18.4317C18.7327 18.6077 18.6188 18.7583 18.4619 18.8503C17.6253 19.3413 14.8916 20.6075 11.5956 18.6967C10.3065 17.9488 9.29437 17.8281 8.56842 17.9104Z" fill="#6666FF"/>
</g>
<defs>
<filter id="filter0_d_2749_12427" x="-5.5" y="-5" width="36" height="36" filterUnits="userSpaceOnUse" color-interpolation-filters="sRGB">
<feFlood flood-opacity="0" result="BackgroundImageFix"/>
<feColorMatrix in="SourceAlpha" type="matrix" values="0 0 0 0 0 0 0 0 0 0 0 0 0 0 0 0 0 0 127 0" result="hardAlpha"/>
<feOffset/>
<feGaussianBlur stdDeviation="3"/>
<feComposite in2="hardAlpha" operator="out"/>
<feColorMatrix type="matrix" values="0 0 0 0 0 0 0 0 0 0 0 0 0 0 0 0 0 0 0.05 0"/>
<feBlend mode="normal" in2="BackgroundImageFix" result="effect1_dropShadow_2749_12427"/>
<feBlend mode="normal" in="SourceGraphic" in2="effect1_dropShadow_2749_12427" result="shape"/>
</filter>
</defs>
</svg>
