<svg width="28" height="30" viewBox="0 0 28 30" fill="none" xmlns="http://www.w3.org/2000/svg">
<g filter="url(#filter0_d_2749_12483)">
<path d="M7 16.6L7.77778 20.6M7.77778 20.6L7 23M7.77778 20.6H9.84122C10.3888 20.6 10.5179 20.712 10.6081 21.2688L10.8889 23M21 16.6L20.2222 20.6M20.2222 20.6L21 23M20.2222 20.6H18.1588C17.6112 20.6 17.4821 20.712 17.3919 21.2688L17.1111 23M14 13.4V23M13.2222 23H14.7778M11.6667 17.4H16.3333M8.24444 11.3256C9.85444 10.5504 11.4746 9.32 12.67 8.0912C13.377 7.3632 13.7309 7 14 7C14.2691 7 14.6222 7.364 15.3308 8.0912C16.5254 9.3192 18.1456 10.5504 19.7548 11.3256C20.3023 11.5896 20.6368 11.9144 20.9012 12.548C21.1034 13.032 21.0124 13.4 20.461 13.4H7.539C6.98678 13.4 6.89656 13.032 7.09878 12.548C7.36322 11.9144 7.69767 11.5896 8.24444 11.3256Z" stroke="#6666FF" stroke-linecap="round" stroke-linejoin="round"/>
</g>
<defs>
<filter id="filter0_d_2749_12483" x="-4" y="-3" width="36" height="36" filterUnits="userSpaceOnUse" color-interpolation-filters="sRGB">
<feFlood flood-opacity="0" result="BackgroundImageFix"/>
<feColorMatrix in="SourceAlpha" type="matrix" values="0 0 0 0 0 0 0 0 0 0 0 0 0 0 0 0 0 0 127 0" result="hardAlpha"/>
<feOffset/>
<feGaussianBlur stdDeviation="3"/>
<feComposite in2="hardAlpha" operator="out"/>
<feColorMatrix type="matrix" values="0 0 0 0 0 0 0 0 0 0 0 0 0 0 0 0 0 0 0.05 0"/>
<feBlend mode="normal" in2="BackgroundImageFix" result="effect1_dropShadow_2749_12483"/>
<feBlend mode="normal" in="SourceGraphic" in2="effect1_dropShadow_2749_12483" result="shape"/>
</filter>
</defs>
</svg>
